<svg xmlns="http://www.w3.org/2000/svg" xmlns:xlink="http://www.w3.org/1999/xlink" viewBox="0 0 235.68 174.94"><defs><style>.cls-1{fill:#dfe8ef;}.cls-2{fill:url(#未命名的渐变_637);}.cls-3{fill:url(#未命名的渐变_637-2);}.cls-4{fill:url(#未命名的渐变_637-3);}.cls-5{fill:url(#未命名的渐变_637-4);}.cls-6{fill:none;stroke:#dfe8ef;stroke-linecap:round;stroke-linejoin:round;stroke-width:2px;stroke-dasharray:5 6;}.cls-12,.cls-7{fill:#fff;}.cls-8{fill:url(#未命名的渐变_236);}.cls-14,.cls-9{opacity:0.5;}.cls-9{fill:url(#未命名的渐变_292);}.cls-10{fill:url(#未命名的渐变_381);}.cls-11{fill:url(#未命名的渐变_109);}.cls-12{opacity:0.74;}.cls-13{fill:#ffe252;}.cls-15{fill:#ffb829;}.cls-16{fill:url(#未命名的渐变_398);}.cls-17{fill:url(#未命名的渐变_398-2);}.cls-18{fill:url(#未命名的渐变_398-3);}.cls-19{fill:url(#未命名的渐变_398-4);}.cls-20{fill:url(#未命名的渐变_398-5);}</style><linearGradient id="未命名的渐变_637" x1="192.26" y1="140.72" x2="207.2" y2="140.72" gradientUnits="userSpaceOnUse"><stop offset="0" stop-color="#eabaff"/><stop offset="1" stop-color="#ffc5c4"/></linearGradient><linearGradient id="未命名的渐变_637-2" x1="192.26" y1="148.68" x2="225.66" y2="148.68" xlink:href="#未命名的渐变_637"/><linearGradient id="未命名的渐变_637-3" x1="-5133.35" y1="4.86" x2="-5118.41" y2="4.86" gradientTransform="matrix(1, 0, 0, -1, 5160.37, 9.72)" xlink:href="#未命名的渐变_637"/><linearGradient id="未命名的渐变_637-4" x1="-5133.35" y1="12.83" x2="-5099.95" y2="12.83" gradientTransform="matrix(1, 0, 0, -1, 5141.99, 25.65)" xlink:href="#未命名的渐变_637"/><linearGradient id="未命名的渐变_236" x1="107.47" y1="36.55" x2="107.47" y2="165.87" gradientUnits="userSpaceOnUse"><stop offset="0" stop-color="#fff"/><stop offset="1" stop-color="#ffcfcf"/></linearGradient><linearGradient id="未命名的渐变_292" x1="124.57" y1="12.6" x2="124.57" y2="124.58" gradientUnits="userSpaceOnUse"><stop offset="0" stop-color="#85c4ff"/><stop offset="1" stop-color="#8a7bff"/></linearGradient><linearGradient id="未命名的渐变_381" x1="107.47" y1="28.07" x2="107.47" y2="51.25" gradientUnits="userSpaceOnUse"><stop offset="0" stop-color="#ff73a9"/><stop offset="1" stop-color="#ffb8ac"/></linearGradient><linearGradient id="未命名的渐变_109" x1="124.57" y1="57.36" x2="124.57" y2="-11.22" gradientUnits="userSpaceOnUse"><stop offset="0" stop-color="#55e4ff"/><stop offset="1" stop-color="#8a7bff"/></linearGradient><linearGradient id="未命名的渐变_398" x1="140.91" y1="158.73" x2="140.91" y2="63.11" gradientUnits="userSpaceOnUse"><stop offset="0" stop-color="#a2e4f5"/><stop offset="1" stop-color="#c756f7"/></linearGradient><linearGradient id="未命名的渐变_398-2" x1="140.9" y1="158.73" x2="140.9" y2="63.11" xlink:href="#未命名的渐变_398"/><linearGradient id="未命名的渐变_398-3" x1="140.95" y1="158.73" x2="140.95" y2="63.11" xlink:href="#未命名的渐变_398"/><linearGradient id="未命名的渐变_398-4" x1="116.11" y1="147.81" x2="116.11" y2="98.12" xlink:href="#未命名的渐变_398"/><linearGradient id="未命名的渐变_398-5" x1="165.78" y1="147.81" x2="165.78" y2="98.12" xlink:href="#未命名的渐变_398"/></defs><title>资源 54</title><g id="图层_2" data-name="图层 2"><g id="图层_1-2" data-name="图层 1"><g id="程序升级"><circle class="cls-1" cx="231.17" cy="78.57" r="4.52"/><circle class="cls-1" cx="14.55" cy="158.59" r="4.52"/><rect class="cls-2" x="192.26" y="138.57" width="15.01" height="4.3" rx="2.15" ry="2.15"/><rect class="cls-3" x="192.26" y="146.53" width="33.4" height="4.3" rx="2.15" ry="2.15"/><rect class="cls-4" x="27.02" y="2.71" width="15.01" height="4.3" rx="2.15" ry="2.15" transform="translate(69.06 9.72) rotate(-180)"/><rect class="cls-5" x="8.64" y="10.68" width="33.4" height="4.3" rx="2.15" ry="2.15" transform="translate(50.67 25.65) rotate(180)"/><circle class="cls-6" cx="49.77" cy="125.17" r="48.77"/><circle class="cls-6" cx="181.5" cy="78.57" r="49.67"/><path class="cls-7" d="M33.39,51.29H181.56v96.88a5.7,5.7,0,0,1-5.7,5.7H39.09a5.7,5.7,0,0,1-5.7-5.7V51.29Z"/><path class="cls-7" d="M181.56,39.89v79.79H193a5.71,5.71,0,0,0,5.69-5.7V17.1H50.48V34.19H175.86A5.7,5.7,0,0,1,181.56,39.89Z"/><path class="cls-7" d="M175.86,34.19H39.09a5.7,5.7,0,0,0-5.7,5.7v11.4H181.56V39.89A5.7,5.7,0,0,0,175.86,34.19Z"/><path class="cls-7" d="M193,0H56.18a5.7,5.7,0,0,0-5.7,5.7V17.1H198.65V5.7A5.7,5.7,0,0,0,193,0Z"/><path class="cls-7" d="M121.86,132.3h-3.69a2.62,2.62,0,0,1-2.41-1.66v0a2.63,2.63,0,0,1,.53-2.87l2.62-2.62a2.57,2.57,0,0,0,0-3.64l-3.31-3.31a2.58,2.58,0,0,0-3.65,0l-3.88,3.9h0c-.53-.28-1.07-.54-1.62-.77a2.61,2.61,0,0,1-1.65-2.4v-3.69a2.58,2.58,0,0,0-2.58-2.58H97.51a2.58,2.58,0,0,0-2.58,2.58v3.69a2.6,2.6,0,0,1-1.65,2.4c-.55.23-1.09.49-1.62.77h0l-3.88-3.9a2.58,2.58,0,0,0-3.65,0l-3.31,3.31a2.57,2.57,0,0,0,0,3.64l2.62,2.62a2.63,2.63,0,0,1,.53,2.87v0a2.62,2.62,0,0,1-2.41,1.66H77.84a2.58,2.58,0,0,0-2.58,2.58v4.67a2.58,2.58,0,0,0,2.58,2.58h3.69a2.62,2.62,0,0,1,2.41,1.66,15.84,15.84,0,0,0,.77,1.61v0l-3.9,3.88a2.59,2.59,0,0,0,0,3.65l3.31,3.31a2.6,2.6,0,0,0,3.65,0l2.62-2.62a2.6,2.6,0,0,1,2.87-.54l0,0a2.59,2.59,0,0,1,1.65,2.4v3.69a2.58,2.58,0,0,0,2.58,2.58h4.68a2.58,2.58,0,0,0,2.58-2.58v-3.69a2.6,2.6,0,0,1,1.65-2.4l0,0a2.59,2.59,0,0,1,2.86.54l2.62,2.62a2.6,2.6,0,0,0,3.65,0L118.9,153a2.58,2.58,0,0,0,0-3.65L115,145.43v0h0a15.77,15.77,0,0,0,.76-1.61,2.62,2.62,0,0,1,2.41-1.66h3.69a2.58,2.58,0,0,0,2.58-2.58v-4.67A2.58,2.58,0,0,0,121.86,132.3Zm-22,12.29a7.38,7.38,0,1,1,7.38-7.38A7.38,7.38,0,0,1,99.85,144.59Z"/><path class="cls-7" d="M176.89,112.72h-4.31a3.07,3.07,0,0,1-2.82-1.94v0a3.06,3.06,0,0,1,.62-3.36l3.06-3.06a3,3,0,0,0,0-4.27l-3.87-3.87a3,3,0,0,0-4.26,0l-4.54,4.56h0q-.93-.49-1.89-.9a3.05,3.05,0,0,1-1.94-2.81V92.73a3,3,0,0,0-3-3h-5.47a3,3,0,0,0-3,3v4.32a3.06,3.06,0,0,1-1.93,2.81,20.48,20.48,0,0,0-1.89.9h0L137,96.2a3,3,0,0,0-4.27,0l-3.87,3.87a3,3,0,0,0,0,4.27l3.06,3.06a3,3,0,0,1,.63,3.36l0,0a3,3,0,0,1-2.81,1.94h-4.32a3,3,0,0,0-3,3v5.47a3,3,0,0,0,3,3h4.32a3,3,0,0,1,2.81,1.94q.41,1,.9,1.89v0l-4.56,4.54a3,3,0,0,0,0,4.26l3.87,3.87a3,3,0,0,0,4.27,0l3.06-3.06a3.07,3.07,0,0,1,3.36-.62h0a3.07,3.07,0,0,1,1.93,2.82v4.31a3,3,0,0,0,3,3h5.47a3,3,0,0,0,3-3V139.9a3.07,3.07,0,0,1,1.94-2.82h0a3.05,3.05,0,0,1,3.35.62l3.07,3.06a3,3,0,0,0,4.26,0l3.87-3.87a3,3,0,0,0,0-4.26l-4.55-4.54v0a20.26,20.26,0,0,0,.89-1.89,3.07,3.07,0,0,1,2.82-1.94h4.31a3,3,0,0,0,3-3v-5.47A3,3,0,0,0,176.89,112.72ZM151.15,127.1a8.63,8.63,0,1,1,8.63-8.63A8.62,8.62,0,0,1,151.15,127.1Z"/><path class="cls-7" d="M61.88,5.7h0a2.85,2.85,0,0,1,2.85,2.85h0a2.86,2.86,0,0,1-2.85,2.85h0A2.86,2.86,0,0,1,59,8.55h0A2.85,2.85,0,0,1,61.88,5.7Z"/><path class="cls-7" d="M73.28,5.7h0a2.85,2.85,0,0,1,2.85,2.85h0a2.86,2.86,0,0,1-2.85,2.85h0a2.85,2.85,0,0,1-2.85-2.85h0A2.84,2.84,0,0,1,73.28,5.7Z"/><path class="cls-7" d="M84.68,5.7h0a2.85,2.85,0,0,1,2.85,2.85h0a2.86,2.86,0,0,1-2.85,2.85h0a2.85,2.85,0,0,1-2.85-2.85h0A2.84,2.84,0,0,1,84.68,5.7Z"/><path class="cls-7" d="M44.78,39.89h0a2.85,2.85,0,0,1,2.85,2.85h0a2.84,2.84,0,0,1-2.85,2.85h0a2.85,2.85,0,0,1-2.85-2.85h0A2.86,2.86,0,0,1,44.78,39.89Z"/><path class="cls-7" d="M56.18,39.89h0A2.85,2.85,0,0,1,59,42.74h0a2.84,2.84,0,0,1-2.85,2.85h0a2.85,2.85,0,0,1-2.85-2.85h0A2.86,2.86,0,0,1,56.18,39.89Z"/><path class="cls-7" d="M67.58,39.89h0a2.86,2.86,0,0,1,2.85,2.85h0a2.85,2.85,0,0,1-2.85,2.85h0a2.85,2.85,0,0,1-2.85-2.85h0A2.86,2.86,0,0,1,67.58,39.89Z"/><path class="cls-7" d="M73.28,59.84h74.08a2.84,2.84,0,0,1,2.85,2.85h0a2.85,2.85,0,0,1-2.85,2.85H73.28a2.85,2.85,0,0,1-2.85-2.85h0A2.84,2.84,0,0,1,73.28,59.84Z"/><path class="cls-7" d="M61.88,82.63h0a2.86,2.86,0,0,1,2.85,2.85h0a2.85,2.85,0,0,1-2.85,2.85h0A2.85,2.85,0,0,1,59,85.48h0A2.86,2.86,0,0,1,61.88,82.63Z"/><path class="cls-7" d="M73.28,71.24h74.08a2.84,2.84,0,0,1,2.85,2.85h0a2.85,2.85,0,0,1-2.85,2.85H73.28a2.85,2.85,0,0,1-2.85-2.85h0A2.84,2.84,0,0,1,73.28,71.24Z"/><path class="cls-7" d="M61.88,94h0a2.86,2.86,0,0,1,2.85,2.85h0a2.85,2.85,0,0,1-2.85,2.85h0A2.85,2.85,0,0,1,59,96.88h0A2.86,2.86,0,0,1,61.88,94Z"/><path class="cls-7" d="M61.88,59.84h0a2.85,2.85,0,0,1,2.85,2.85h0a2.86,2.86,0,0,1-2.85,2.85h0A2.86,2.86,0,0,1,59,62.69h0A2.85,2.85,0,0,1,61.88,59.84Z"/><path class="cls-7" d="M61.88,71.24h0a2.85,2.85,0,0,1,2.85,2.85h0a2.86,2.86,0,0,1-2.85,2.85h0A2.86,2.86,0,0,1,59,74.09h0A2.85,2.85,0,0,1,61.88,71.24Z"/><path class="cls-7" d="M73.28,82.63h34.19a2.85,2.85,0,0,1,2.85,2.85h0a2.84,2.84,0,0,1-2.85,2.85H73.28a2.84,2.84,0,0,1-2.85-2.85h0A2.85,2.85,0,0,1,73.28,82.63Z"/><path class="cls-7" d="M73.28,94h28.49a2.85,2.85,0,0,1,2.85,2.85h0a2.84,2.84,0,0,1-2.85,2.85H73.28a2.84,2.84,0,0,1-2.85-2.85h0A2.85,2.85,0,0,1,73.28,94Z"/><path class="cls-8" d="M33.39,51.29H181.56v96.88a5.7,5.7,0,0,1-5.7,5.7H39.09a5.7,5.7,0,0,1-5.7-5.7V51.29Z"/><path class="cls-9" d="M181.56,39.89v79.79H193a5.71,5.71,0,0,0,5.69-5.7V17.1H50.48V34.19H175.86A5.7,5.7,0,0,1,181.56,39.89Z"/><path class="cls-10" d="M175.86,34.19H39.09a5.7,5.7,0,0,0-5.7,5.7v11.4H181.56V39.89A5.7,5.7,0,0,0,175.86,34.19Z"/><path class="cls-11" d="M193,0H56.18a5.7,5.7,0,0,0-5.7,5.7V17.1H198.65V5.7A5.7,5.7,0,0,0,193,0Z"/><path class="cls-12" d="M61.88,5.7h0a2.85,2.85,0,0,1,2.85,2.85h0a2.86,2.86,0,0,1-2.85,2.85h0A2.86,2.86,0,0,1,59,8.55h0A2.85,2.85,0,0,1,61.88,5.7Z"/><path class="cls-12" d="M73.28,5.7h0a2.85,2.85,0,0,1,2.85,2.85h0a2.86,2.86,0,0,1-2.85,2.85h0a2.85,2.85,0,0,1-2.85-2.85h0A2.84,2.84,0,0,1,73.28,5.7Z"/><path class="cls-12" d="M84.68,5.7h0a2.85,2.85,0,0,1,2.85,2.85h0a2.86,2.86,0,0,1-2.85,2.85h0a2.85,2.85,0,0,1-2.85-2.85h0A2.84,2.84,0,0,1,84.68,5.7Z"/><path class="cls-13" d="M44.78,39.89h0a2.85,2.85,0,0,1,2.85,2.85h0a2.84,2.84,0,0,1-2.85,2.85h0a2.85,2.85,0,0,1-2.85-2.85h0A2.86,2.86,0,0,1,44.78,39.89Z"/><path class="cls-13" d="M56.18,39.89h0A2.85,2.85,0,0,1,59,42.74h0a2.84,2.84,0,0,1-2.85,2.85h0a2.85,2.85,0,0,1-2.85-2.85h0A2.86,2.86,0,0,1,56.18,39.89Z"/><path class="cls-13" d="M67.58,39.89h0a2.86,2.86,0,0,1,2.85,2.85h0a2.85,2.85,0,0,1-2.85,2.85h0a2.85,2.85,0,0,1-2.85-2.85h0A2.86,2.86,0,0,1,67.58,39.89Z"/><g class="cls-14"><path class="cls-15" d="M73.28,65.54h74.08a2.85,2.85,0,0,0,0-5.7H73.28a2.85,2.85,0,1,0,0,5.7Z"/><path class="cls-15" d="M61.88,82.63a2.85,2.85,0,1,0,2.85,2.85A2.86,2.86,0,0,0,61.88,82.63Z"/><path class="cls-15" d="M147.36,71.24H73.28a2.85,2.85,0,0,0,0,5.7h74.08a2.85,2.85,0,0,0,0-5.7Z"/><circle class="cls-15" cx="61.88" cy="96.88" r="2.85"/><path class="cls-15" d="M61.88,59.84a2.85,2.85,0,1,0,2.85,2.85A2.85,2.85,0,0,0,61.88,59.84Z"/><path class="cls-15" d="M61.88,71.24a2.85,2.85,0,1,0,2.85,2.85A2.85,2.85,0,0,0,61.88,71.24Z"/><path class="cls-15" d="M107.47,82.63H73.28a2.85,2.85,0,0,0,0,5.7h34.19a2.85,2.85,0,0,0,0-5.7Z"/><path class="cls-15" d="M101.77,94H73.28a2.85,2.85,0,1,0,0,5.7h28.49a2.85,2.85,0,1,0,0-5.7Z"/></g><path class="cls-16" d="M141.1,146.87a18,18,0,0,0,9.65-2.89,2.84,2.84,0,0,0-3.07-4.78A11.9,11.9,0,0,1,134.2,139a2.83,2.83,0,1,0-3.18,4.69A17.88,17.88,0,0,0,141.1,146.87Z"/><path class="cls-17" d="M151.21,147.79a24.16,24.16,0,0,1-20.57-.22,2.83,2.83,0,1,0-2.49,5.09,29.81,29.81,0,0,0,25.43.28,2.83,2.83,0,0,0-2.37-5.15Z"/><path class="cls-18" d="M159.18,100,144.88,85a5.11,5.11,0,0,0-3.94-1.59h-.28l-.33,0h-.28a5.1,5.1,0,0,0-3.38,1.91L122.72,100a5.1,5.1,0,0,0,7.41,7l5.44-5.74v29.6a5.1,5.1,0,0,0,10.2,0V100.71l6,6.32a5.07,5.07,0,0,0,3.7,1.59,5.1,5.1,0,0,0,3.71-8.61Z"/><path class="cls-19" d="M125.58,117.29l-7.42-7.82a2.65,2.65,0,0,0-2-.82h-.46a2.6,2.6,0,0,0-1.76,1l-7.25,7.63a2.65,2.65,0,1,0,3.85,3.65l2.83-3v15.38a2.65,2.65,0,0,0,5.3,0V117.66l3.12,3.28a2.65,2.65,0,1,0,3.84-3.65Z"/><path class="cls-20" d="M175.25,117.29l-7.42-7.82a2.65,2.65,0,0,0-2.05-.82h-.46a2.6,2.6,0,0,0-1.76,1l-7.25,7.63a2.65,2.65,0,1,0,3.85,3.65l2.83-3v15.38a2.65,2.65,0,0,0,5.3,0V117.66l3.12,3.28a2.65,2.65,0,1,0,3.84-3.65Z"/></g></g></g></svg>