<?xml version="1.0" standalone="no"?><!DOCTYPE svg PUBLIC "-//W3C//DTD SVG 1.1//EN" "http://www.w3.org/Graphics/SVG/1.1/DTD/svg11.dtd"><svg t="1716540421791" class="icon" viewBox="0 0 1024 1024" version="1.1" xmlns="http://www.w3.org/2000/svg" p-id="34940" xmlns:xlink="http://www.w3.org/1999/xlink" width="48" height="48"><path d="M600.972264 857.377768c-107.052955 0.095413-214.137715 1.113147-321.190669-0.127217-60.777836-0.699693-113.922664-53.908128-114.336119-114.463335-1.017735-155.808802-0.922322-311.649408-0.063608-467.45821 0.318042-57.374786 56.770507-110.456005 118.089014-110.805852 152.246731-0.890518 304.525266-0.954126 456.771998 0 64.594341 0.38165 118.629686 55.498338 118.820511 118.693295 0.286238 100.151443-0.127217 200.33469-0.254434 300.486132-9.859304-3.339442-16.919837-9.859304-22.040314-18.637264-3.275833-34.889213-0.699693-69.842035-1.431189-104.763053-0.254434-11.131472-1.081343-22.358356 0.159021-33.362611 3.339442-29.259869-6.106407-55.243905-19.114328-80.655465-12.848899-25.093518-36.129577-36.193186-64.21269-30.054974-3.689288 0.795105-7.251359 2.035469-10.749822 3.40305-24.680063 9.636674-26.715533 8.746156-18.128397 33.648849 3.148616 9.127807 8.809765 21.467839 0.286238 28.560177-8.587135 7.155946-17.460509-3.721092-26.01584-7.155947-29.673324-11.958381-59.696493-12.721682-89.751467-2.19449-21.277013 7.442184-42.172376 15.965711-62.940523 24.680064-21.02258 8.777961-41.82253 8.491723-62.84511 0.7633-18.128397-6.647079-36.161381-13.644004-53.939932-21.213405-39.055564-16.633599-77.157002-16.061124-114.558748 4.579806-4.643414 2.576141-10.081933 6.20182-14.916172 2.353511-4.643414-3.721092-2.448924-9.922912-1.653819-15.043389 1.462993-9.445849 4.420785-18.541852 7.251359-27.669659 2.226294-7.18775 0.127217-12.053794-6.933316-15.520452-41.122838-20.163866-77.824891-11.958381-95.06277 31.168122-8.428114 21.117992-13.707613 41.631705-13.548592 64.498928 0.636084 105.399137 0.445259 210.830077 0.286238 316.229214-6.106407 36.638445 31.549772 88.161257 77.570457 96.0487 5.279498 0.890518 10.654409 1.462993 15.933907 2.607945 14.979781 2.19449 30.054974 0.954126 45.034755 0.98593 79.987576 0.159021 159.943349 0 239.930925 0.127217 15.361431-0.031804 28.973631 3.0214 33.553436 20.291083z" fill="#123450" p-id="34941"></path><path d="M600.972264 857.377768c-12.753486-15.42504-29.80054-16.824425-48.660434-16.697208-85.330683 0.667888-170.661366 0.318042-255.960244 0.254434-5.82017 0-11.672143-0.858714-17.492313-1.303972 6.678883-8.809765 16.569991-6.138212 25.252539-6.170016 82.277479-0.254434 164.586763-0.190825 246.896046-0.095413 10.972451 0 21.277013-0.063608 19.718607-15.297823 1.685623-22.485573 15.329627-35.875144 35.906948-41.949747 17.460509-5.152281 26.651924-15.870298 31.517968-32.472093 5.851974-19.845824 17.206075-35.747927 35.557101-47.324658 19.81402-12.499053 30.913688-33.489828 45.925273-50.664099 16.092928-18.382831 33.20359-34.316738 57.597416-41.377271 13.6122-3.943721 21.054384-15.80669 29.641519-25.920428 8.61894-10.177346 17.873963-19.050719 32.885548-10.940646 8.61894 2.894183 13.866634 9.60487 19.146132 16.315557l-0.095413 152.978228c-2.130882 6.138212-1.240364 12.371836-0.508867 18.60546-10.463584 52.508743-41.695313 86.284809-94.172252 100.246855-10.145542 2.703357-21.054384 3.530267-31.61338 3.562071-43.857999 0.127217-87.747803 3.180421-131.542194-1.749231z" fill="#168BBA" p-id="34942"></path><path d="M858.236482 755.254465c-3.244029-6.297233-3.816505-12.499053 0.508867-18.60546-0.159021 6.20182-0.318042 12.40364-0.508867 18.60546z" fill="#2282AA" p-id="34943"></path><path d="M839.726434 567.387024c-15.011585-1.526602-25.220735 4.516197-33.012765 17.460508-7.760226 12.880703-18.382831 22.580986-35.048234 25.41156-12.181011 2.067273-22.421965 10.240954-30.913688 19.305153-11.672143 12.435444-22.899028 25.284343-33.966891 38.196851-11.767556 13.707613-22.421965 28.019505-38.737522 37.59257-16.124732 9.477653-22.740007 26.556511-27.44703 43.508153-4.38898 15.774886-12.62627 25.697798-29.450694 29.546107-18.478243 4.229959-31.422555 15.552256-36.256794 34.443955-5.756561 5.184085-12.944312 4.61161-19.877628 4.611609-84.408361 0.063608-168.816722 0.858714-253.225083-0.318042-39.341802-0.540671-72.704413-16.983446-99.45175-45.798055-8.491723-9.159611-13.99385-19.909433-17.810355-31.613381-0.349846-29.100848-0.922322-58.201696-0.954127-87.270739-0.127217-82.595521-0.286238-165.191043 0.095413-247.818368 0.127217-29.196261 13.866634-54.321583 31.168121-76.266485 15.520452-19.718607 38.832935-23.153462 62.908718-15.393235 11.131472 3.593875 24.902693 5.756561 31.963227 13.453179 8.110072 8.873373-5.343107 19.877628-6.074603 30.786471-0.572476 8.269093-2.862378 16.442774-5.152282 28.910022 9.477653-6.20182 15.361431-11.544927 22.262944-14.311892 30.62745-12.276423 62.050005-16.601795 93.949623-4.99326 23.026245 8.364506 45.925273 17.174271 68.601671 26.461098 20.513712 8.39631 40.550362 7.951051 60.80964-0.318042 17.746747-7.251359 35.652514-14.184676 53.367457-21.563251 41.44088-17.269684 81.259745-15.20241 119.392987 9.22322 1.685623 1.081343 3.721092 1.685623 6.933317 3.116812 0.095413-17.714942-4.834239-33.044569-10.81343-48.151567-1.431189-3.657484-5.533932-7.442184 1.494797-10.050129 17.873963-6.583471 34.571171-16.79262 54.766842-15.965711 15.902103 0.667888 30.532037 5.661149 39.850669 17.810355 16.856229 21.944902 30.213995 46.43414 30.595646 74.739883 0.731497 55.116688 0.095413 110.201572 0.031804 165.254651z" fill="#FBDBCB" p-id="34944"></path><path d="M839.885455 337.474423c-27.574246-45.384601-61.318508-56.961332-106.480479-39.977886-2.003665 0.763301-4.039134 1.399385-5.947387 2.321707-17.174271 8.141877-32.026835 12.181011-50.695903-1.749231-19.909433-14.852564-45.639035-13.294158-69.873839-7.346772-3.593875 0.890518-11.513122-1.685623-8.078268 7.187751 2.003665 5.152281 2.576141 11.481318 11.449513 9.700282 13.166941-2.607945 26.365686-3.625679 39.977887-0.858713 23.789546 4.834239 38.832935 18.478243 47.42007 40.327732-7.442184 3.593875-13.262354-0.858714-19.336957-2.003665-34.952822-6.647079-68.410846-1.494798-100.914744 11.640339-7.919247 3.212225-15.80669 6.710687-23.248874 10.845234-26.779141 14.947977-53.113023 15.997515-80.782681 1.303973-16.347362-8.682548-33.553437-16.092928-51.872659-20.736342-31.358946-7.951051-62.527068-7.919247-94.108644 1.399385 7.092338-32.058639 38.610305-49.61456 77.093394-42.999286 13.00792 2.226294 20.863559 0.540671 21.308817-14.470913-33.521632-7.855639-65.898314-8.205485-94.140447 15.361431-5.565736 4.643414-9.891108 1.622014-14.757152-0.159021-15.011585-5.470323-29.259869-13.516787-45.161971-15.80669-37.592571-5.406715-66.089139 8.459919-84.85362 41.122837-16.538187-83.104389 23.407895-149.638786 110.64683-149.543373 143.08712 0.127217 286.17424 0.890518 429.26136-0.349846 68.538063-0.60428 117.802777 51.363792 113.254775 112.491474-0.954126 12.499053-0.159021 25.125322-0.159021 42.299593z" fill="#F9E999" p-id="34945"></path><path d="M184.496195 739.734012c16.506383 23.471504 33.489828 46.497748 61.159487 58.646955 20.19567 8.873373 40.8366 14.725347 63.481194 14.629935 88.574712-0.477063 177.149424-0.190825 265.692332-0.159021 1.653819 26.365686 1.653819 26.333882-26.556512 26.365686-89.815076 0.127217-179.661956 0.286238-269.445228 0.413455-56.388856-7.633009-95.317203-48.883064-94.331273-99.89701z" fill="#EEBFAB" p-id="34946"></path><path d="M839.153958 672.150076c0 27.00177 3.307637 54.480604-0.699692 80.878094-7.951051 52.03168-51.586421 86.730068-106.385067 88.002237-36.543032 0.826909-73.117868 0.127217-109.692704 0.190825-13.071528 0.031804-23.853154-4.38898-27.319813-17.492313-3.689288-13.930242 4.548001-23.248874 17.365096-25.920428 30.309408-6.265428 42.395006-27.669659 50.028015-53.812715 3.371246-11.576731 10.113737-20.545517 21.02258-26.906358 24.330217-14.184676 37.306333-39.055564 55.371122-59.092213 13.866634-15.393235 28.019505-28.782806 49.23291-33.362612 16.538187-3.593875 25.379756-16.919837 34.41215-29.450694 3.498463-4.866043 6.774296-11.067863 13.516787-8.714352 6.265428 2.19449 3.816505 9.191415 3.880113 14.184675 0.190825 23.82135 0.095413 47.674504 0.095413 71.495854h-0.82691z" fill="#43BFE4" p-id="34947" data-spm-anchor-id="a313x.search_index.0.i3.40213a81J68Ykz" class="selected"></path><path d="M674.758021 453.273535c21.722272-0.286238 39.373606 16.633599 39.182781 37.560766-0.190825 20.450104-17.237879 36.892878-38.260459 36.924683-20.863559 0.031804-38.165046-16.569991-38.387676-36.861074-0.254434-20.354691 16.665404-37.369941 37.465354-37.624375z" fill="#143551" p-id="34948"></path><path d="M349.051154 453.305339c21.181601 0.254434 37.401746 16.633599 37.179116 37.528962-0.222629 20.768146-16.824425 36.924682-38.006026 36.956487-21.881293 0.031804-38.578501-16.888033-37.974221-38.451284 0.572476-20.481908 17.61953-36.288598 38.801131-36.034165z" fill="#133450" p-id="34949"></path><path d="M508.676461 688.942697c14.82076-1.558406 28.973631 2.512532 43.41274 3.339441 6.170016 0.349846 11.449514 1.781036 10.304562 10.399975-1.20856 9.445849-6.965121 9.032394-13.834829 7.887443-24.998105-4.229959-50.155232-4.802435-75.089729-0.254433-9.382241 1.717427-10.781626-2.639749-12.40364-9.636675-2.067273-9.064199 4.929652-7.982856 9.445849-8.523527 12.785291-1.526602 25.41156-4.802435 38.165047-3.212224z" fill="#163551" p-id="34950"></path><path d="M695.049104 491.27956c-0.795105 11.449514-7.537597 17.905768-19.146132 18.764481-10.972451 0.795105-20.227475-8.905178-20.004845-19.941236 0.222629-11.163276 9.636674-20.132062 20.895363-18.987111 11.640339 1.20856 18.096593 7.855639 18.255614 20.163866z" fill="#FCFDFD" p-id="34951"></path><path d="M368.260894 489.593937c-0.38165 12.340032-10.304563 21.563251-21.213405 20.322888-11.640339-1.335777-18.160201-8.39631-18.446439-19.909433-0.286238-11.163276 9.22322-19.273348 21.02258-18.510048 12.340032 0.763301 17.428705 8.428114 18.637264 18.096593z" fill="#FCFCFD" p-id="34952"></path></svg>