<?xml version="1.0" standalone="no"?><!DOCTYPE svg PUBLIC "-//W3C//DTD SVG 1.1//EN" "http://www.w3.org/Graphics/SVG/1.1/DTD/svg11.dtd"><svg t="1712329151901" class="icon" viewBox="0 0 1024 1024" version="1.1" xmlns="http://www.w3.org/2000/svg" p-id="17121" xmlns:xlink="http://www.w3.org/1999/xlink" width="48" height="48"><path d="M915.584 711.36a32 32 0 0 1 0 45.264l-158.4 158.4a32 32 0 0 1-45.248 0L100.992 304.048a32 32 0 0 1 0-45.248l158.4-158.4a32 32 0 0 1 45.248 0L915.584 711.36zM253.728 230.528a24 24 0 0 0-33.936 0l-62.24 62.24 33.952 33.92 62.224-62.224a24 24 0 0 0 0-33.92zM672.32 649.136a24 24 0 0 0-33.952 0l-62.224 62.24 33.952 33.92 62.224-62.224a24 24 0 0 0 0-33.92zM287.664 309.728a24 24 0 0 0-33.936 0l-39.6 39.6 33.936 33.936 39.6-39.6a24 24 0 0 0 0-33.936zM706.272 728.32a24 24 0 0 0-33.936 0l-39.6 39.6 33.936 33.936 39.6-39.6a24 24 0 0 0 0-33.936zM366.88 343.664a24 24 0 0 0-33.936 0l-62.24 62.24 33.952 33.92 62.224-62.208a24 24 0 0 0 0-33.952z m418.608 418.608a24 24 0 0 0-33.936 0l-62.24 62.24 33.952 33.92 62.224-62.224a24 24 0 0 0 0-33.92z" fill="#65A5F4" p-id="17122"></path><path d="M361.2 858.448l-237.584 33.92 33.936-237.568 203.648 203.648zM813.76 405.888L395.152 824.496 191.504 620.848 610.112 202.24 813.76 405.888zM689.28 123.056a64 64 0 0 1 90.512 0l113.136 113.12a64 64 0 0 1 0 90.528l-45.248 45.248-203.648-203.648 45.248-45.248z" fill="#F6B825" p-id="17123"></path></svg>