<?xml version="1.0" standalone="no"?><!DOCTYPE svg PUBLIC "-//W3C//DTD SVG 1.1//EN" "http://www.w3.org/Graphics/SVG/1.1/DTD/svg11.dtd"><svg t="1707280259583" class="icon" viewBox="0 0 1024 1024" version="1.1" xmlns="http://www.w3.org/2000/svg" p-id="102959" xmlns:xlink="http://www.w3.org/1999/xlink" width="48" height="48"><path d="M965 28.1H223.2c-29.3 0-53 23.7-53 53v741.8c0 29.3 23.7 53 53 53H965c29.3 0 53-23.7 53-53V81.1c0-29.3-23.7-53-53-53z" fill="#90ff8b" p-id="102960" data-spm-anchor-id="a313x.search_index.0.i81.de003a81pmymfZ" class=""></path><path d="M919.9 81.1H435.1c-43.8 0-79.5 35.7-79.5 79.5v130.3c0 43.8 35.7 79.5 79.5 79.5h484.8c43.8 0 79.5-35.7 79.5-79.5V160.6c0-43.9-35.7-79.5-79.5-79.5z m26.5 209.8c0 14.6-11.9 26.5-26.5 26.5H435.1c-14.6 0-26.5-11.9-26.5-26.5V160.6c0-14.6 11.9-26.5 26.5-26.5h484.8c14.6 0 26.5 11.9 26.5 26.5v130.3zM919.9 400.1H435.1c-43.8 0-79.5 35.7-79.5 79.5v130.3c0 43.8 35.7 79.5 79.5 79.5h484.8c43.8 0 79.5-35.7 79.5-79.5V479.6c0-43.9-35.7-79.5-79.5-79.5z m26.5 209.8c0 14.6-11.9 26.5-26.5 26.5H435.1c-14.6 0-26.5-11.9-26.5-26.5V479.6c0-14.6 11.9-26.5 26.5-26.5h484.8c14.6 0 26.5 11.9 26.5 26.5v130.3zM919.9 719.1H435.1c-43.8 0-79.5 35.7-79.5 79.5v130.3c0 43.8 35.7 79.5 79.5 79.5h484.8c43.8 0 79.5-35.7 79.5-79.5V798.6c0-43.9-35.7-79.5-79.5-79.5z m26.5 209.8c0 14.6-11.9 26.5-26.5 26.5H435.1c-14.6 0-26.5-11.9-26.5-26.5V798.6c0-14.6 11.9-26.5 26.5-26.5h484.8c14.6 0 26.5 11.9 26.5 26.5v130.3zM212.8 81.1H82.5C38.6 81.1 3 116.7 3 160.6v130.3c0 43.8 35.7 79.5 79.5 79.5h130.3c43.8 0 79.5-35.7 79.5-79.5V160.6c0-43.9-35.7-79.5-79.5-79.5z m26.5 209.8c0 14.6-11.9 26.5-26.5 26.5H82.5c-14.6 0-26.5-11.9-26.5-26.5V160.6c0-14.6 11.9-26.5 26.5-26.5h130.3c14.6 0 26.5 11.9 26.5 26.5v130.3zM212.8 400.1H82.5C38.6 400.1 3 435.7 3 479.6v130.3c0 43.8 35.7 79.5 79.5 79.5h130.3c43.8 0 79.5-35.7 79.5-79.5V479.6c0-43.9-35.7-79.5-79.5-79.5z m26.5 209.8c0 14.6-11.9 26.5-26.5 26.5H82.5c-14.6 0-26.5-11.9-26.5-26.5V479.6c0-14.6 11.9-26.5 26.5-26.5h130.3c14.6 0 26.5 11.9 26.5 26.5v130.3zM212.8 719.1H82.5C38.6 719.1 3 754.7 3 798.6v130.3c0 43.8 35.7 79.5 79.5 79.5h130.3c43.8 0 79.5-35.7 79.5-79.5V798.6c0-43.9-35.7-79.5-79.5-79.5z m26.5 209.8c0 14.6-11.9 26.5-26.5 26.5H82.5c-14.6 0-26.5-11.9-26.5-26.5V798.6c0-14.6 11.9-26.5 26.5-26.5h130.3c14.6 0 26.5 11.9 26.5 26.5v130.3z" fill="#444444" p-id="102961"></path></svg>