<svg xml:space="preserve" style="enable-background:new 0 0 256.5 253.117;" viewBox="0 0 256.5 253.117" height="253.117px" width="256.5px" y="0px" x="0px" xmlns:xlink="http://www.w3.org/1999/xlink" xmlns="http://www.w3.org/2000/svg" id="Layer_1" version="1.1">
<g id="Layer_3_2_">
	<path d="M248.789,112.863c0-41.101-32.57-74.416-72.745-74.416
		c-0.626,0-1.242,0.029-1.862,0.047c-12.686-21.803-35.942-36.421-62.547-36.421c-40.177,0-72.747,33.319-72.747,74.419
		c0,0.534,0.029,1.06,0.04,1.591C16.954,90.886,2.126,115.048,2.126,142.771c0,41.097,32.57,74.41,72.747,74.41
		c2.285,0,4.542-0.119,6.774-0.33c13.343,16.534,34.516,27.074,57.113,27.074c37.137,0,66.762-28.469,71.188-65.226
		C233.042,166.229,248.789,141.434,248.789,112.863z" style="opacity:0.42;fill:#9FCCFF;enable-background:new    ;"></path>
</g>
<g id="Layer_4">
</g>
<g id="Layer_2">
	<g>
		<g>
			
				<rect height="88.489" width="113.52" style="fill:#FFFFFF;" transform="matrix(-0.8416 0.5401 -0.5401 -0.8416 202.876 98.1535)" y="34.582" x="30.285"></rect>
			<path d="M63.172,148.219c-0.107,0-0.214-0.012-0.32-0.034c-0.389-0.085-0.728-0.321-0.942-0.655
				L14.117,73.056c-0.215-0.335-0.288-0.741-0.203-1.13c0.084-0.389,0.32-0.728,0.655-0.942l95.539-61.312
				c0.697-0.448,1.625-0.246,2.072,0.452l47.794,74.472c0.215,0.335,0.288,0.741,0.203,1.13s-0.321,0.728-0.655,0.942l-95.54,61.313
				C63.738,148.138,63.457,148.219,63.172,148.219z M17.452,72.698l46.172,71.948l93.015-59.692l-46.173-71.947L17.452,72.698z" style="fill:#CCCCDE;"></path>
		</g>
		
			<rect height="71.427" width="99.868" style="opacity:0.29;fill:#81D0E8;enable-background:new    ;" transform="matrix(-0.8416 0.5401 -0.5401 -0.8416 199.7185 96.3426)" y="41.744" x="35.797"></rect>
		<polygon points="94.247,86.635 95.02,87.838 51.134,116.002 
			64.837,137.354 148.886,83.412 134.409,60.858" style="opacity:0.29;fill:#FFE5B0;enable-background:new    ;"></polygon>
		<g style="opacity:0.29;">
			<path d="M123.203,66.042c1.565,2.438-0.477,3.466-4.103,5.792c-3.626,2.327-5.45,3.78-7.014,1.343
				c-0.917-1.427,1.188-5.128,3.143-6.383C117.383,65.41,122.596,65.097,123.203,66.042z" style="fill:#85B385;"></path>
		</g>
		
			<rect height="5.549" width="99.869" style="opacity:0.29;fill:#E6CE9E;enable-background:new    ;" transform="matrix(-0.8416 0.5401 -0.5401 -0.8416 221.4455 115.2057)" y="87.301" x="43.895"></rect>
		<path d="M101.092,76.674c2.978,4.64,0.551,5.657-3.584,8.311
			c-4.135,2.653-6.115,4.464-9.093-0.175c-1.741-2.713-0.158-8.207,2.07-9.637C92.942,73.595,99.937,74.875,101.092,76.674z" style="opacity:0.29;fill:#85B385;enable-background:new    ;"></path>
		<polygon points="60.805,102.489 60.953,98.037 69.717,92.414 
			73.941,94.221" style="opacity:0.29;fill:#B3A889;enable-background:new    ;"></polygon>
		<polygon points="63.973,100.481 64.468,92.887 71.624,95.678" style="opacity:0.29;fill:#B3A889;enable-background:new    ;"></polygon>
		<polygon points="75.235,96.296 78.929,96.023 80.689,98.768 
			77.948,100.526" style="opacity:0.29;fill:#E4CBB4;enable-background:new    ;"></polygon>
		<polygon points="78.929,96.023 81.674,94.262 82.226,91.729 
			79.547,93.528" style="opacity:0.29;fill:#E66C6C;enable-background:new    ;"></polygon>
		<polygon points="84.48,91.688 85.976,91.662 89.633,89.315 
			90.697,86.696 85.438,90.071" style="opacity:0.29;fill:#E66C6C;enable-background:new    ;"></polygon>
		<polygon points="90.697,86.696 95.683,85.917 97.15,88.203 
			80.689,98.768 78.929,96.023 81.674,94.262 82.226,91.729 85.976,91.662 89.633,89.315" style="opacity:0.29;fill:#E4CBB4;enable-background:new    ;"></polygon>
		
			<rect height="3.261" width="3.261" style="opacity:0.29;fill:#C9B39F;enable-background:new    ;" transform="matrix(-0.8416 0.5402 -0.5402 -0.8416 201.6216 133.8987)" y="94.889" x="79.542"></rect>
		<path d="M45.555,101.691c-0.905,0.581-1.649,1.313-2.231,2.144
			l8.298,12.929c0.998-0.184,1.974-0.554,2.879-1.134c9.521-6.111,4.856-7.524,2.387-11.373
			C54.416,100.407,49.343,99.259,45.555,101.691z" style="opacity:0.29;fill:#B4CFB4;enable-background:new    ;"></path>
		
			<rect height="3.125" width="4.346" style="opacity:0.29;fill:#C9B39F;enable-background:new    ;" transform="matrix(-0.8415 0.5402 -0.5402 -0.8415 212.8417 121.1865)" y="90.249" x="86.473"></rect>
		
			<rect height="2.853" width="1.63" style="opacity:0.29;fill:#8B7256;enable-background:new    ;" transform="matrix(-0.8416 0.5402 -0.5402 -0.8416 224.6065 103.4527)" y="83.241" x="96.316"></rect>
		<polygon points="68.686,106.471 64.598,100.101 60.805,102.489 
			64.915,108.891" style="opacity:0.29;fill:#DDDDDD;enable-background:new    ;"></polygon>
		<polygon points="73.909,94.233 77.948,100.526 68.686,106.471 
			64.598,100.101" style="opacity:0.29;fill:#F7F7F7;enable-background:new    ;"></polygon>
		<polygon points="64.468,92.887 63.558,93.522 62.423,101.512 
			63.994,100.504" style="opacity:0.29;fill:#968D73;enable-background:new    ;"></polygon>
		
			<rect height="2.046" width="1.82" style="opacity:0.29;fill:#3F3F3F;enable-background:new    ;" transform="matrix(-0.8414 0.5404 -0.5404 -0.8414 179.8376 148.6981)" y="99.713" x="67.191"></rect>
		
			<rect height="2.046" width="1.82" style="opacity:0.29;fill:#3F3F3F;enable-background:new    ;" transform="matrix(-0.8417 0.5399 -0.5399 -0.8417 183.6534 144.3346)" y="98.062" x="69.762"></rect>
		
			<rect height="2.045" width="1.821" style="opacity:0.29;fill:#3F3F3F;enable-background:new    ;" transform="matrix(-0.8415 0.5402 -0.5402 -0.8415 187.5426 139.8568)" y="96.413" x="72.348"></rect>
		
			<rect height="2.048" width="2.523" style="opacity:0.29;fill:#3F3F3F;enable-background:new    ;" transform="matrix(-0.8412 0.5407 -0.5407 -0.8412 206.0019 127.2672)" y="92.857" x="83.053"></rect>
		
			<rect height="2.047" width="2.522" style="opacity:0.29;fill:#3F3F3F;enable-background:new    ;" transform="matrix(-0.8417 0.54 -0.54 -0.8417 218.5457 112.8692)" y="87.451" x="91.464"></rect>
		
			<rect height="3.041" width="0.302" style="opacity:0.29;fill:#E4CBB4;enable-background:new    ;" transform="matrix(-0.8414 0.5404 -0.5404 -0.8414 218.4909 113.164)" y="87.124" x="92.488"></rect>
		
			<rect height="2.046" width="1.818" style="opacity:0.29;fill:#3F3F3F;enable-background:new    ;" transform="matrix(-0.8415 0.5402 -0.5402 -0.8415 173.4817 156.0443)" y="102.446" x="62.942"></rect>
		<path d="M64.943,102.915c2.979,4.641,0.552,5.659-3.583,8.312
			c-4.134,2.654-6.114,4.465-9.092-0.177c-1.741-2.713-0.161-8.206,2.069-9.635C56.794,99.837,63.791,101.116,64.943,102.915z" style="opacity:0.29;fill:#85B385;enable-background:new    ;"></path>
		<g style="opacity:0.29;">
			<path d="M108.963,74.531c1.887,2.938,0.302,3.614-2.405,5.351c-2.707,1.737-4.009,2.916-5.895-0.023
				c-1.104-1.719-0.024-5.248,1.434-6.184C103.707,72.642,108.231,73.391,108.963,74.531z" style="fill:#85B385;"></path>
		</g>
		<g style="opacity:0.29;">
			<path d="M115.873,72.107c0.892,1.39-0.758,2.286-3.748,4.204c-2.988,1.917-4.525,3.067-5.417,1.677
				c-0.52-0.812,1.484-3.439,3.097-4.474C111.582,72.374,115.529,71.568,115.873,72.107z" style="fill:#85B385;"></path>
		</g>
		<g style="opacity:0.29;">
			<path d="M134.041,60.032c1.1,1.709-1.877,3.421-7.349,6.933c-5.472,3.512-8.326,5.541-9.423,3.832
				c-0.642-1.001,3.393-5.239,6.343-7.132C126.864,61.577,133.615,59.368,134.041,60.032z" style="fill:#85B385;"></path>
		</g>
		
			<rect height="1.856" width="36.023" style="opacity:0.29;fill:#85B385;enable-background:new    ;" transform="matrix(-0.8416 0.5401 -0.5401 -0.8416 257.7923 65.6299)" y="69.69" x="101.261"></rect>
		<g style="opacity:0.29;">
			<g style="opacity:0.73;">
				<path d="M122.112,41.695L95.191,58.974c-1.806,1.16-3.885,1.172-4.618,0.027
					c-0.734-1.144,0.144-3.026,1.948-4.186l26.921-17.276" style="fill:#FFFFFF;"></path>
			</g>
			<g style="opacity:0.28;">
				<path d="M31.18,84.913l24.295-15.592c1.804-1.159,3.852-1.221,4.547-0.137s-0.214,2.917-2.02,4.076
					L33.708,88.851" style="fill:#FFFFFF;"></path>
			</g>
			<g style="opacity:0.55;">
				<path d="M80.403,75.418c0.733,1.144-0.143,3.027-1.949,4.186l-15.541,9.974
					c-1.805,1.158-3.883,1.171-4.617,0.028c-0.734-1.144,0.144-3.028,1.949-4.186l15.541-9.974
					C77.591,74.286,79.669,74.274,80.403,75.418z" style="fill:#FFFFFF;"></path>
			</g>
		</g>
		
			<rect height="5.552" width="99.868" style="opacity:0.29;fill:#F2D9A6;enable-background:new    ;" transform="matrix(-0.8416 0.5401 -0.5401 -0.8416 229.3626 122.0739)" y="91.894" x="46.846"></rect>
		<path d="M65.042,138.719c-0.494,0-0.978-0.243-1.264-0.689L23.407,75.122
			c-0.215-0.334-0.288-0.741-0.203-1.13c0.084-0.389,0.32-0.728,0.655-0.942l83.846-53.808c0.335-0.215,0.742-0.288,1.13-0.203
			c0.389,0.084,0.728,0.32,0.942,0.655l40.371,62.907c0.447,0.697,0.245,1.625-0.452,2.072L65.85,138.481
			C65.6,138.642,65.319,138.719,65.042,138.719z M26.742,74.764l38.75,60.382l81.32-52.188l-38.75-60.382L26.742,74.764z" style="fill:#CCCCDE;"></path>
	</g>
	<g>
		<g>
			<polygon points="141.547,64.3 171.719,7.855 227.35,37.59 243.771,91.726 232.456,112.894 
				219.979,136.232 198.943,175.584 108.036,126.99 129.07,87.638" style="fill:#FFFFFF;"></polygon>
			<path d="M198.942,177.084c-0.239,0-0.481-0.057-0.706-0.177l-90.907-48.594
				c-0.73-0.391-1.006-1.3-0.616-2.03L170.396,7.148c0.392-0.731,1.303-1.005,2.03-0.616l55.631,29.735
				c0.351,0.188,0.613,0.507,0.729,0.887l16.422,54.136c0.115,0.381,0.075,0.792-0.112,1.143l-44.828,83.858
				C199.996,176.797,199.478,177.084,198.942,177.084z M110.066,126.375l88.261,47.179l43.828-81.987L226.095,38.62l-53.76-28.735
				L110.066,126.375z" style="fill:#CCCCDE;"></path>
		</g>
		<g>
			<polyline points="242.355,93.065 207.078,74.208 226.518,37.844" style="fill:#FFFFFF;"></polyline>
			<path d="M241.648,94.388l-35.277-18.857c-0.351-0.188-0.613-0.507-0.729-0.887
				c-0.115-0.381-0.075-0.792,0.112-1.143l19.439-36.364l2.646,1.414l-18.732,35.042l33.954,18.15L241.648,94.388z" style="fill:#CCCCDE;"></path>
		</g>
		
			<rect height="3" width="30.018" style="fill:#CCCCDE;" transform="matrix(0.8819 0.4714 -0.4714 0.8819 38.9215 -87.0306)" y="32.67" x="178.159"></rect>
		
			<rect height="3" width="30.017" style="fill:#CCCCDE;" transform="matrix(0.8819 0.4714 -0.4714 0.8819 42.9957 -83.335)" y="42.652" x="172.825"></rect>
		
			<rect height="3" width="30.018" style="fill:#CCCCDE;" transform="matrix(0.8819 0.4714 -0.4714 0.8819 47.0102 -79.6914)" y="52.49" x="167.565"></rect>
		
			<rect height="3" width="72.34" style="fill:#CCCCDE;" transform="matrix(0.8819 0.4714 -0.4714 0.8819 58.4129 -83.2411)" y="73.47" x="159.183"></rect>
		
			<rect height="3" width="43.306" style="fill:#CCCCDE;" transform="matrix(0.8819 0.4714 -0.4714 0.8819 58.1489 -73.9489)" y="77.598" x="155.033"></rect>
		
			<rect height="3" width="13.289" style="fill:#CCCCDE;" transform="matrix(0.8819 0.4714 -0.4714 0.8819 70.4334 -87.5024)" y="95.345" x="203.241"></rect>
		
			<rect height="3" width="60.036" style="fill:#CCCCDE;" transform="matrix(0.8819 0.4714 -0.4714 0.8819 65.572 -72.7131)" y="93.027" x="147.905"></rect>
		
			<rect height="3" width="26.575" style="fill:#CCCCDE;" transform="matrix(0.8819 0.4714 -0.4714 0.8819 65.0882 -62.1749)" y="97.334" x="143.363"></rect>
		
			<rect height="3" width="9.843" style="fill:#CCCCDE;" transform="matrix(0.8819 0.4715 -0.4715 0.8819 75.0643 -73.1719)" y="111.717" x="178.636"></rect>
		
			<rect height="3" width="8.858" style="fill:#CCCCDE;" transform="matrix(0.8818 0.4716 -0.4716 0.8818 81.1851 -79.9162)" y="120.532" x="195.621"></rect>
		
			<rect height="3" width="50.194" style="fill:#CCCCDE;" transform="matrix(0.8819 0.4714 -0.4714 0.8819 73.2826 -62.5008)" y="113.519" x="136.293"></rect>
		
			<rect height="3.001" width="8.86" style="fill:#CCCCDE;" transform="matrix(0.882 0.4713 -0.4713 0.882 86.2618 -76.8376)" y="132.31" x="192.114"></rect>
		
			<rect height="3" width="34.448" style="fill:#CCCCDE;" transform="matrix(0.8819 0.4714 -0.4714 0.8819 74.4865 -56.2358)" y="119.067" x="132.273"></rect>
		
			<rect height="3.001" width="11.156" style="fill:#CCCCDE;" transform="matrix(0.8819 0.4715 -0.4715 0.8819 85.269 -68.1176)" y="134.61" x="172.997"></rect>
		
			<rect height="3" width="16.732" style="fill:#CCCCDE;" transform="matrix(0.8818 0.4716 -0.4716 0.8818 75.1725 -49.8464)" y="123.571" x="128.68"></rect>
	</g>
	<g id="Layer_2_1_">
		<g>
			
				<rect height="92.971" width="119.448" style="fill:#FFFFFF;" transform="matrix(-0.9323 -0.3616 0.3616 -0.9323 229.7001 270.6021)" y="67.323" x="80.446"></rect>
			<path d="M179.043,180.245c-0.184,0-0.368-0.034-0.542-0.102L67.135,136.949
				c-0.371-0.144-0.669-0.429-0.83-0.793s-0.17-0.777-0.026-1.147l33.62-86.68c0.299-0.772,1.168-1.158,1.941-0.856l111.365,43.194
				c0.772,0.299,1.156,1.168,0.856,1.941l-33.619,86.679c-0.144,0.371-0.429,0.67-0.793,0.83
				C179.456,180.202,179.249,180.245,179.043,180.245z M69.618,134.694l108.568,42.109l32.534-83.882L102.153,50.812L69.618,134.694
				z" style="fill:#CCCCDE;"></path>
		</g>
		<g id="Layer_2_2_">
			
				<rect height="76.229" width="101.73" style="fill:#D6F1FF;" transform="matrix(-0.9323 -0.3616 0.3616 -0.9323 230.0114 270.1648)" y="75.446" x="89.42"></rect>
		</g>
		<g style="opacity:0.47;" id="Layer_3_1_">
			<path d="M95.37,88.686c0,0,5.715-3.75,14.978-0.158
				c9.265,3.593,5.409-5.151,16.525-0.84c11.113,4.31,20.311,1.484,31.638,11.844c11.326,10.36,34.201,19.521,34.201,19.521
				l-6.924,18.733l-97.171-31.689L95.37,88.686L95.37,88.686z" style="opacity:0.08;enable-background:new    ;"></path>
			<polygon points="139.255,109.203 83.964,118.096 79.165,130.47 174.314,167.372" style="fill:#FFE5B0;"></polygon>
			<path d="M90.242,101.907c0,0,17.035-2.618,25.455,1.566c8.418,4.183-10.848,11.261-10.848,11.261
				l-20.885,3.361L90.242,101.907z" style="fill:#FFE5B0;"></path>
			<path d="M115.697,103.474c0,0,2.501,2.507-4.967,2.499c-7.467-0.011-13.86,10.206-1.212,8.955
				c12.647-1.251,29.738-5.724,29.738-5.724S127.537,111.47,115.697,103.474z" style="fill:#F2D9A6;"></path>
			<path d="M152.635,114.689c0,0,14.852-2.765,37.186,11.482l-2.405,7.424L152.635,114.689z" style="fill:#FFE5B0;"></path>
			<path d="M109.517,114.927c5.312-0.526,11.402-1.62,16.69-2.71c-8.917-4.468-9.246-7.928-9.246-7.928
				s-0.001-0.003-0.003-0.004c-0.42-0.26-0.841-0.528-1.262-0.811c0,0,2.503,2.508-4.966,2.5
				C103.263,105.962,96.869,116.179,109.517,114.927z" style="fill:#D6C093;"></path>
			<path d="M157.991,114.534c0,0,17.786,6.943,30.634,15.317
				l-1.211,3.743L157.991,114.534z" style="opacity:0.42;fill:#D6C093;enable-background:new    ;"></path>
			<g>
				<path d="M150.093,110.658c0,0-15.791-7.663-11.657,5.865c4.135,13.531,35.879,50.852,35.879,50.852
					l13.101-33.777C187.414,133.595,161.57,115.108,150.093,110.658z" style="fill:#D6C093;"></path>
			</g>
			<path d="M83.057,120.433c0,0,27.267,4.538,45.416-7.145
				c0,0-11.872,10.777-47.57,12.701L83.057,120.433z" style="opacity:0.27;fill:#D6C093;enable-background:new    ;"></path>
			<path d="M139.464,119.2c0,0,15.796,27.182,15.657,40.727
				l19.193,7.445L139.464,119.2z" style="opacity:0.25;fill:#D6C093;enable-background:new    ;"></path>
			<g>
				<path d="M142.536,121.373c-4.894-15.644,13.567-6.708,13.567-6.708c2.057,0.798,4.252,1.658,6.502,2.545
					c-4.725-2.829-9.213-5.27-12.516-6.55c0,0-15.792-7.664-11.656,5.866c1.83,5.996,9.086,16.662,16.598,26.684
					C149.505,135.514,144.425,127.398,142.536,121.373z M186.812,133.168l-12.998,33.518c0,0-0.76-0.854-2.041-2.346
					c1.591,1.915,2.541,3.034,2.541,3.034l13.101-33.776C187.414,133.595,187.2,133.443,186.812,133.168z" style="fill:#C7B289;"></path>
			</g>
			<g>
				<path d="M112.953,106.835c2.823,0.002,4.22-0.353,4.866-0.798c-0.793-1.102-0.857-1.75-0.857-1.75
					s-0.001-0.003-0.003-0.004c-0.421-0.258-0.84-0.527-1.26-0.81c0,0,2.501,2.507-4.967,2.499c-6.488-0.011-12.167,7.704-5.234,8.9
					C102.415,112.507,107.385,106.827,112.953,106.835z" style="fill:#C7B289;"></path>
			</g>
		</g>
		<path d="M174.316,168.868c-0.181,0-0.364-0.032-0.542-0.102l-95.144-36.902
			c-0.772-0.3-1.156-1.169-0.856-1.94l27.474-70.836c0.144-0.371,0.429-0.669,0.793-0.83c0.365-0.161,0.777-0.169,1.148-0.026
			l95.143,36.902c0.371,0.144,0.67,0.429,0.83,0.793c0.161,0.364,0.17,0.777,0.026,1.148l-27.475,70.835
			C175.484,168.505,174.917,168.868,174.316,168.868z M81.114,129.609l92.346,35.817l26.391-68.039l-92.347-35.817L81.114,129.609z" style="fill:#CCCCDE;"></path>
	</g>
</g>
<g id="Layer_1_1_">
	<g style="display:none;" id="Layer_3_6_">
		<g style="display:inline;">
			<g>
				<path d="M82.857,142.264c0-11.381-9.9-20.604-22.113-20.604c-0.19,0-0.378,0.008-0.566,0.014
					c-3.855-6.037-10.927-10.083-19.014-10.083c-12.212,0-22.114,9.224-22.114,20.604c0,0.147,0.008,0.294,0.011,0.439
					c-6.677,3.546-11.185,10.235-11.185,17.911c0,11.38,9.9,20.604,22.113,20.604c0.694,0,1.381-0.033,2.06-0.094
					c4.057,4.577,10.194,7.497,17.061,7.497c11.29,0,20.595-7.884,21.941-18.06C78.07,157.039,82.857,150.174,82.857,142.264z" style="fill:#D7F7E4;"></path>
				<path d="M49.11,180.052c-6.788,0-13.186-2.705-17.675-7.447c-0.488,0.029-0.972,0.044-1.445,0.044
					c-13.021,0-23.613-9.916-23.613-22.104c0-7.648,4.26-14.769,11.178-18.789c0.25-11.987,10.746-21.665,23.61-21.665
					c7.967,0,15.476,3.838,19.808,10.07c12.916,0.115,23.385,9.986,23.385,22.104c0,7.985-4.554,15.279-11.938,19.213
					C70.595,172.121,60.722,180.052,49.11,180.052z M32.669,169.493l0.502,0.566c3.938,4.443,9.748,6.992,15.938,6.992
					c10.397,0,19.19-7.203,20.454-16.756l0.105-0.796l0.72-0.354c6.766-3.329,10.968-9.798,10.968-16.883
					c0-10.534-9.247-19.104-20.613-19.104c-0.136,0-0.27,0.005-0.404,0.009l-0.967,0.03l-0.459-0.719
					c-3.699-5.792-10.5-9.39-17.75-9.39c-11.367,0-20.614,8.57-20.614,19.104l0.029,1.332l-0.814,0.433
					c-6.408,3.402-10.389,9.758-10.389,16.586c0,10.534,9.247,19.104,20.613,19.104c0.625,0,1.273-0.029,1.926-0.088L32.669,169.493
					z" style="fill:#CCCCDE;"></path>
			</g>
			<path d="M60.371,120.917c-0.189,0-0.377,0.009-0.566,0.014
				c-3.091-4.841-8.25-8.4-14.343-9.621c4.821,1.209,8.88,4.142,11.376,8.046c0.162-0.004,2.377,3.825,2.542,3.825
				c10.48,0,15.355,5.647,15.355,15.412c0,6.788-2.542,11.113-8.567,14.075c-1.155,8.734-9.141,15.5-18.827,15.5
				c-5.896,0-11.162-2.503-14.643-6.43c-0.582,0.049-1.17,0.076-1.766,0.076c-10.48,0-18.712-4.969-18.712-14.73
				c0-6.577,2.942-9.814,8.299-13.718c-0.143-0.843-0.738-8.288,1.247-10.272c4.716-4.717,6.853-8.769,11.072-10.864
				c-8.281,2.978-14.158,10.459-14.158,19.227c0,0.146,0.009,0.295,0.011,0.439c-6.679,3.547-11.186,10.23-11.186,17.908
				c0,11.381,9.9,20.607,22.113,20.607c0.696,0,1.381-0.035,2.06-0.098c4.056,4.576,10.192,7.498,17.063,7.498
				c11.288,0,20.593-7.886,21.939-18.063c7.02-3.451,11.808-10.313,11.808-18.229C82.486,130.143,72.585,120.917,60.371,120.917z" style="opacity:0.1;fill:#6E6E96;enable-background:new    ;"></path>
			<g>
				<path d="M28.898,153.408c0,0,11.452,2.24,11.452,13.445c0,0,3.083,19.037-8.834,32.506h27.519
					c-0.272-0.381-24.036-32.129,2.41-50.997C45.315,157.583,28.898,153.408,28.898,153.408z" style="fill:#EDE3DA;"></path>
				<path d="M59.035,200.859H28.186l2.207-2.494c11.315-12.788,8.506-31.089,8.477-31.271l-0.02-0.24
					c0-8.917-8.25-11.475-9.965-11.908c-0.234-0.052-0.356-0.083-0.356-0.083l0.658-2.926c0,0,0.137,0.025,0.385,0.088
					c0.92,0.2,4.162,0.826,8.657,0.826c5.631,0,14.1-1.004,22.473-5.79l1.616,2.522c-6.518,4.65-10.389,10.526-11.505,17.465
					c-2.377,14.769,8.199,29.737,9.413,31.396l1.747,2.386L59.035,200.859z M34.648,197.859h21.56
					c-3.402-5.336-10.452-18.292-8.359-31.288c0.788-4.896,2.783-9.306,5.956-13.183c-5.947,1.959-11.473,2.462-15.577,2.462
					c-0.433,0-0.854-0.005-1.264-0.015c2.596,2.244,4.852,5.691,4.886,10.899C42.107,168.455,44.235,184.761,34.648,197.859z" style="fill:#CCCCDE;"></path>
			</g>
			<g>
				<path d="M36.149,130.929" style="fill:#D57E58;"></path>
			</g>
			<path d="M54.581,153.376c0,0-17.376,22.435-4.021,45.983h8.475
				C59.034,199.359,41.402,174.719,54.581,153.376z" style="opacity:0.11;fill:#6E6E96;enable-background:new    ;"></path>
		</g>
		<g style="display:inline;">
			<g>
				<path d="M250.016,141.002c0-10.657-9.271-19.296-20.707-19.296c-0.181,0-0.354,0.008-0.531,0.013
					c-3.61-5.654-10.23-9.444-17.805-9.444c-11.438,0-20.709,8.639-20.709,19.296c0,0.138,0.008,0.273,0.012,0.411
					c-6.254,3.32-10.477,9.584-10.477,16.772c0,10.654,9.271,19.295,20.708,19.295c0.65,0,1.292-0.03,1.931-0.087
					c3.797,4.284,9.545,7.021,15.977,7.021c10.568,0,19.286-7.381,20.546-16.914C245.533,154.836,250.016,148.409,250.016,141.002z" style="fill:#D7F7E4;"></path>
				<path d="M218.414,176.484c-6.367,0-12.37-2.532-16.591-6.973c-0.443,0.025-0.884,0.038-1.316,0.038
					c-12.245,0-22.208-9.328-22.208-20.795c0-7.18,3.988-13.863,10.471-17.65c0.266-11.252,10.124-20.33,22.203-20.33
					c7.474,0,14.52,3.594,18.599,9.433c12.125,0.132,21.944,9.41,21.944,20.794c0,7.497-4.267,14.347-11.189,18.053
					C238.592,169.046,229.317,176.484,218.414,176.484z M203.059,166.402l0.502,0.565c3.67,4.142,9.084,6.517,14.854,6.517
					c9.689,0,17.883-6.711,19.059-15.61l0.105-0.796l0.72-0.354c6.303-3.102,10.218-9.126,10.218-15.723
					c0-9.812-8.616-17.796-19.207-17.796c-0.115,0-0.227,0.004-0.339,0.007l-1,0.028l-0.457-0.716
					c-3.446-5.398-9.784-8.751-16.54-8.751c-10.592,0-19.209,7.983-19.209,17.796l0.037,1.3l-0.822,0.437
					c-5.971,3.17-9.68,9.089-9.68,15.447c0,9.812,8.616,17.795,19.208,17.795c0.587,0,1.191-0.027,1.798-0.081L203.059,166.402z" style="fill:#CCCCDE;"></path>
			</g>
			<path d="M228.959,121.011c-0.182,0-0.354,0.008-0.529,0.012
				c-2.896-4.533-7.729-7.866-13.433-9.01c4.514,1.132,8.315,3.878,10.651,7.534c0.151-0.004,2.228,3.582,2.381,3.582
				c9.812,0,14.378,5.289,14.378,14.434c0,6.356-2.382,10.405-8.021,13.186c-1.082,8.179-8.562,14.509-17.632,14.509
				c-5.519,0-10.45-2.343-13.713-6.021c-0.548,0.046-1.095,0.07-1.655,0.07c-9.816,0-17.523-4.652-17.523-13.794
				c0-6.159,2.755-9.191,7.771-12.85c-0.136-0.793-0.69-7.761,1.171-9.618c4.413-4.417,6.416-8.211,10.367-10.174
				c-7.755,2.789-13.259,9.795-13.259,18.003c0,0.137,0.006,0.271,0.012,0.411c-6.254,3.32-10.478,9.583-10.478,16.771
				c0,10.653,9.271,19.295,20.709,19.295c0.65,0,1.293-0.031,1.928-0.088c3.799,4.287,9.547,7.021,15.979,7.021
				c10.569,0,19.285-7.383,20.547-16.915c6.574-3.233,11.054-9.659,11.054-17.068C249.668,129.65,240.396,121.011,228.959,121.011z" style="opacity:0.1;fill:#6E6E96;enable-background:new    ;"></path>
			<g>
				<path d="M199.486,151.436c0,0,10.725,2.101,10.725,12.596c0,0,2.887,17.824-8.273,30.438h25.771
					c-0.256-0.354-22.51-30.083,2.257-47.755C214.859,155.348,199.486,151.436,199.486,151.436z" style="fill:#EDE3DA;"></path>
				<path d="M227.709,195.97h-29.102l2.207-2.494c10.566-11.943,7.943-29.033,7.916-29.204l-0.02-0.24
					c0-8.28-7.663-10.659-9.26-11.064c-0.221-0.048-0.335-0.077-0.335-0.077l0.658-2.926c0,0,0.13,0.024,0.363,0.083
					c0.861,0.188,3.891,0.773,8.093,0.773c5.26,0,13.171-0.938,20.991-5.408l1.615,2.523c-6.091,4.347-9.704,9.838-10.741,16.321
					c-2.211,13.834,7.673,27.762,8.807,29.304l1.757,2.389L227.709,195.97z M205.058,192.97h19.825
					c-3.229-5.084-9.685-17.08-7.749-29.187c0.721-4.511,2.53-8.581,5.402-12.173c-5.463,1.755-10.526,2.21-14.306,2.21
					c-0.317,0-0.628-0.004-0.932-0.01c2.363,2.119,4.379,5.324,4.412,10.103C211.956,165.56,213.917,180.717,205.058,192.97z" style="fill:#CCCCDE;"></path>
			</g>
			<g>
				<path d="M206.277,130.389" style="fill:#D57E58;"></path>
			</g>
			<path d="M223.536,151.408c0,0-16.271,21.008-3.765,43.062h7.938
				C227.707,194.47,211.195,171.395,223.536,151.408z" style="opacity:0.11;fill:#6E6E96;enable-background:new    ;"></path>
		</g>
		<g style="display:inline;">
			<g>
				<path d="M213.893,142.732c0-16.358-14.231-29.619-31.789-29.619c-0.272,0-0.545,0.012-0.813,0.019
					c-5.543-8.678-15.707-14.497-27.332-14.497c-17.558,0-31.792,13.262-31.792,29.621c0,0.212,0.013,0.421,0.018,0.637
					c-9.601,5.101-16.082,14.709-16.082,25.743c0,16.358,14.234,29.622,31.791,29.622c0.998,0,1.985-0.049,2.961-0.136
					c5.832,6.583,14.652,10.776,24.526,10.776c16.229,0,29.606-11.33,31.542-25.961
					C207.012,163.975,213.893,154.104,213.893,142.732z" style="fill:#D7F7E4;"></path>
				<path d="M165.38,196.398c-9.688,0-18.806-3.898-25.143-10.724c-0.798,0.056-1.584,0.083-2.345,0.083
					c-18.356,0-33.291-13.961-33.291-31.122c0-10.871,6.132-20.991,16.065-26.621c0.14-17.05,15.02-30.88,33.291-30.88
					c11.356,0,22.051,5.527,28.128,14.479c0.006,0,0.012,0,0.018,0c18.355,0,33.289,13.96,33.289,31.119
					c0,11.339-6.531,21.689-17.1,27.192C195.868,185.072,181.867,196.398,165.38,196.398z M141.475,182.561l0.502,0.566
					c5.782,6.527,14.312,10.271,23.403,10.271c15.274,0,28.195-10.601,30.055-24.657l0.105-0.796l0.72-0.354
					c9.951-4.895,16.133-14.42,16.133-24.859c0-15.505-13.588-28.119-30.289-28.119c-0.179,0-0.356,0.006-0.533,0.011l-1.089,0.028
					l-0.455-0.713c-5.439-8.515-15.428-13.805-26.068-13.805c-16.703,0-30.292,12.615-30.292,28.121
					c0,0.109,0.004,0.219,0.009,0.328l0.03,1.199l-0.817,0.434c-9.429,5.01-15.286,14.366-15.286,24.419
					c0,15.507,13.588,28.122,30.291,28.122c0.909,0,1.861-0.044,2.828-0.13L141.475,182.561z" style="fill:#CCCCDE;"></path>
			</g>
			<path d="M181.568,112.047c-0.271,0-0.543,0.012-0.812,0.019
				c-4.443-6.959-11.861-12.076-20.619-13.83c6.93,1.738,12.768,5.954,16.354,11.565c0.232-0.006,3.419,5.498,3.654,5.498
				c15.064,0,22.073,8.118,22.073,22.156c0,9.758-3.655,15.977-12.315,20.238c-1.658,12.552-13.142,22.276-27.064,22.276
				c-8.475,0-16.045-3.599-21.049-9.247c-0.838,0.069-1.684,0.112-2.54,0.112c-15.068,0-26.9-7.14-26.9-21.177
				c0-9.452,4.23-14.109,11.929-19.723c-0.206-1.216-1.06-11.914,1.792-14.766c6.782-6.781,9.853-12.606,15.918-15.618
				c-11.904,4.28-20.354,15.036-20.354,27.636c0,0.213,0.011,0.422,0.017,0.638c-9.603,5.096-16.083,14.711-16.083,25.743
				c0,16.358,14.232,29.621,31.791,29.621c1,0,1.984-0.047,2.961-0.133c5.83,6.584,14.654,10.775,24.527,10.775
				c16.228,0,29.604-11.333,31.541-25.963c10.092-4.963,16.971-14.832,16.971-26.202
				C213.359,125.308,199.127,112.047,181.568,112.047z" style="opacity:0.1;fill:#6E6E96;enable-background:new    ;"></path>
			<g>
				<path d="M136.323,158.753c0,0,16.463,3.222,16.463,19.334c0,0,4.433,27.366-12.7,46.729h39.561
					c-0.393-0.547-34.554-46.182,3.467-73.309C159.925,164.758,136.323,158.753,136.323,158.753z" style="fill:#EDE3DA;"></path>
				<path d="M179.646,226.316h-42.891l2.207-2.494c16.444-18.585,12.386-45.229,12.343-45.496l-0.02-0.239
					c0-13.325-12.303-17.125-14.831-17.764c-0.33-0.072-0.502-0.116-0.502-0.116l0.658-2.926c0,0,0.189,0.036,0.53,0.121
					c1.328,0.29,6.058,1.208,12.606,1.208c8.171,0,20.464-1.458,32.621-8.405l1.615,2.523c-9.524,6.796-15.181,15.394-16.812,25.555
					c-3.455,21.517,11.894,43.205,13.655,45.607l1.75,2.387L179.646,226.316z M143.273,223.316h33.514
					c-4.52-6.851-15.685-26.147-12.577-45.509c1.239-7.718,4.604-14.585,10.035-20.512c-9.341,3.463-18.122,4.314-24.497,4.314
					c-1.353,0-2.628-0.036-3.816-0.098c4.228,3.059,8.315,8.16,8.354,16.456C154.619,180.151,157.911,204.394,143.273,223.316z" style="fill:#CCCCDE;"></path>
			</g>
			<g>
				<path d="M146.749,126.44" style="fill:#D57E58;"></path>
			</g>
			<path d="M173.244,158.709c0,0-24.979,32.249-5.78,66.104h12.183
				C179.646,224.812,154.299,189.389,173.244,158.709z" style="opacity:0.11;fill:#6E6E96;enable-background:new    ;"></path>
		</g>
		<g style="display:inline;">
			<g>
				<path d="M143.189,143.827c0-13.429-11.687-24.317-26.099-24.317c-0.225,0-0.446,0.01-0.669,0.016
					c-4.551-7.125-12.895-11.901-22.44-11.901c-14.413,0-26.1,10.888-26.1,24.316c0,0.176,0.012,0.35,0.015,0.521
					c-7.883,4.185-13.202,12.078-13.202,21.138c0,13.432,11.685,24.316,26.1,24.316c0.819,0,1.629-0.04,2.43-0.104
					c4.787,5.397,12.031,8.844,20.137,8.844c13.324,0,24.306-9.303,25.893-21.312C137.54,161.268,143.189,153.164,143.189,143.827z" style="fill:#D7F7E4;"></path>
				<path d="M103.362,188.156c-7.982,0-15.503-3.197-20.756-8.797c-0.636,0.038-1.233,0.057-1.811,0.057
					c-15.219,0-27.6-11.581-27.6-25.816c0-8.979,5.03-17.334,13.189-22.016c0.205-14.072,12.506-25.459,27.598-25.459
					c9.363,0,18.183,4.533,23.235,11.885c15.16,0.063,27.473,11.621,27.473,25.817c0,9.368-5.368,17.921-14.064,22.502
					C128.555,178.828,116.982,188.156,103.362,188.156z M83.852,176.258l0.496,0.56c4.701,5.3,11.631,8.339,19.015,8.339
					c12.406,0,22.899-8.602,24.406-20.009l0.105-0.796l0.72-0.354c8.078-3.975,13.097-11.703,13.097-20.171
					c0-12.582-11.035-22.817-24.599-22.817c-0.141,0-0.28,0.005-0.419,0.009l-1.058,0.028l-0.456-0.714
					c-4.416-6.914-12.53-11.208-21.176-11.208c-13.564,0-24.6,10.235-24.6,22.816l0.031,1.414l-0.812,0.432
					c-7.652,4.062-12.405,11.653-12.405,19.812c0,12.581,11.036,22.816,24.6,22.816c0.716,0,1.472-0.032,2.312-0.099L83.852,176.258
					z" style="fill:#CCCCDE;"></path>
			</g>
			<path d="M116.653,118.636c-0.225,0-0.445,0.009-0.668,0.015
				c-3.648-5.713-9.738-9.913-16.927-11.354c5.688,1.427,10.48,4.887,13.426,9.495c0.191-0.005,2.806,4.513,3,4.513
				c12.369,0,18.124,6.665,18.124,18.188c0,8.011-3.002,13.116-10.108,16.614c-1.362,10.307-10.788,18.291-22.22,18.291
				c-6.958,0-13.172-2.957-17.282-7.594c-0.687,0.061-1.382,0.094-2.084,0.094c-12.37,0-22.084-5.861-22.084-17.385
				c0-7.761,3.472-11.584,9.792-16.191c-0.168-0.999-0.87-9.781,1.472-12.122c5.566-5.568,8.088-10.349,13.067-12.823
				c-9.773,3.515-16.71,12.344-16.71,22.689c0,0.174,0.01,0.347,0.015,0.52c-7.885,4.184-13.204,12.077-13.204,21.139
				c0,13.43,11.686,24.315,26.1,24.315c0.821,0,1.628-0.04,2.43-0.106c4.788,5.401,12.031,8.847,20.139,8.847
				c13.322,0,24.303-9.302,25.895-21.314c8.284-4.075,13.935-12.176,13.935-21.508C142.752,129.523,131.066,118.636,116.653,118.636
				z" style="opacity:0.1;fill:#6E6E96;enable-background:new    ;"></path>
			<g>
				<path d="M79.507,156.979c0,0,13.514,2.646,13.514,15.875c0,0,3.639,22.463-10.427,38.361h32.479
					c-0.323-0.447-28.369-37.913,2.844-60.188C98.883,161.908,79.507,156.979,79.507,156.979z" style="fill:#EDE3DA;"></path>
				<path d="M115.073,212.715h-35.81l2.207-2.494c13.413-15.16,10.105-36.91,10.07-37.128l-0.019-0.239
					c0-10.736-9.92-13.807-11.969-14.325c-0.273-0.06-0.415-0.096-0.415-0.096l0.658-2.926c0,0,0.158,0.03,0.443,0.102
					c1.088,0.237,4.943,0.984,10.286,0.984c6.676,0,16.719-1.191,26.648-6.867l1.616,2.522
					c-7.763,5.541-12.371,12.547-13.695,20.823c-2.812,17.586,9.729,35.271,11.169,37.229l1.755,2.389L115.073,212.715z
					 M85.753,209.715h26.473c-3.884-5.979-12.594-21.491-10.095-37.117c0.969-6.058,3.517-11.48,7.602-16.207
					c-7.331,2.559-14.178,3.202-19.208,3.202c-0.793,0-1.555-0.016-2.281-0.043c3.263,2.593,6.241,6.727,6.277,13.186
					C94.811,174.651,97.414,194.216,85.753,209.715z" style="fill:#CCCCDE;"></path>
			</g>
			<g>
				<path d="M88.066,130.452" style="fill:#D57E58;"></path>
			</g>
			<path d="M109.817,156.943c0,0-20.506,26.476-4.745,54.271h10.002
				C115.074,211.216,94.264,182.131,109.817,156.943z" style="opacity:0.11;fill:#6E6E96;enable-background:new    ;"></path>
		</g>
		<g style="display:inline;">
			<g>
				<path d="M248.721,167.583c0-12.149-10.57-21.997-23.609-21.997c-0.199,0-0.399,0.008-0.602,0.014
					c-4.119-6.444-11.667-10.765-20.3-10.765c-13.038,0-23.606,9.849-23.606,21.997c0,0.158,0.013,0.312,0.015,0.471
					c-7.13,3.789-11.943,10.93-11.943,19.125c0,12.152,10.567,22.001,23.606,22.001c0.74,0,1.474-0.038,2.193-0.103
					c4.332,4.891,10.889,8.007,18.221,8.007c12.052,0,21.986-8.418,23.423-19.284C243.607,183.357,248.721,176.029,248.721,167.583z" style="fill:#D7F7E4;"></path>
				<path d="M212.695,207.833c-7.24,0-14.061-2.89-18.835-7.956c-0.542,0.034-1.07,0.052-1.579,0.052
					c-13.844,0-25.106-10.543-25.106-23.501c0-8.146,4.548-15.729,11.933-20.002c0.232-12.77,11.404-23.091,25.103-23.091
					c8.488,0,16.489,4.099,21.095,10.752c13.757,0.097,24.916,10.6,24.916,23.496c0,8.5-4.858,16.268-12.734,20.45
					C235.57,199.376,225.06,207.833,212.695,207.833z M195.096,196.765l0.502,0.567c4.223,4.767,10.454,7.501,17.098,7.501
					c11.15,0,20.581-7.73,21.936-17.98l0.105-0.795l0.719-0.354c7.257-3.577,11.766-10.521,11.766-18.12
					c0-11.302-9.918-20.497-22.109-20.497c-0.143,0-0.286,0.005-0.431,0.009l-0.977,0.029l-0.458-0.717
					c-3.972-6.213-11.266-10.072-19.036-10.072c-12.189,0-22.106,9.195-22.106,20.497l0.025,1.366l-0.807,0.429
					c-6.876,3.654-11.147,10.476-11.147,17.801c0,11.305,9.917,20.501,22.106,20.501c0.651,0,1.344-0.032,2.06-0.097
					L195.096,196.765z" style="fill:#CCCCDE;"></path>
			</g>
			<path d="M224.714,144.792c-0.203,0-0.403,0.011-0.604,0.017
				c-3.301-5.168-8.809-8.969-15.312-10.272c5.146,1.292,9.48,4.421,12.145,8.59c0.173-0.004,2.539,4.084,2.713,4.084
				c11.188,0,16.394,6.026,16.394,16.453c0,7.246-2.714,11.865-9.146,15.03c-1.231,9.322-9.758,16.548-20.101,16.548
				c-6.294,0-11.915-2.677-15.633-6.869c-0.621,0.054-1.252,0.084-1.886,0.084c-11.188,0-19.979-5.304-19.979-15.726
				c0-7.022,3.139-10.479,8.858-14.65c-0.153-0.903-0.791-8.846,1.332-10.965c5.034-5.036,7.315-9.363,11.819-11.6
				c-8.838,3.178-15.113,11.166-15.113,20.524c0,0.155,0.013,0.312,0.016,0.471c-7.131,3.785-11.945,10.929-11.945,19.121
				c0,12.148,10.568,21.998,23.609,21.998c0.742,0,1.473-0.034,2.196-0.1c4.332,4.889,10.885,8.005,18.217,8.005
				c12.052,0,21.985-8.418,23.423-19.283c7.495-3.684,12.609-11.015,12.609-19.458C248.322,154.643,237.754,144.792,224.714,144.792
				z" style="opacity:0.1;fill:#6E6E96;enable-background:new    ;"></path>
			<g>
				<path d="M191.111,179.48c0,0,12.226,2.392,12.226,14.356c0,0,3.292,20.319-9.433,34.702h29.381
					c-0.291-0.403-25.661-34.297,2.574-54.444C208.641,183.939,191.111,179.48,191.111,179.48z" style="fill:#EDE3DA;"></path>
				<path d="M223.285,230.039h-32.711l2.207-2.494c12.113-13.692,9.106-33.271,9.075-33.468l-0.02-0.24
					c0-9.599-8.875-12.349-10.716-12.814c-0.25-0.055-0.38-0.088-0.38-0.088l0.658-2.926c0,0,0.146,0.027,0.408,0.093
					c0.983,0.215,4.456,0.887,9.269,0.887c6.023,0,15.083-1.075,24.039-6.195l1.615,2.522c-6.989,4.987-11.138,11.292-12.33,18.738
					c-2.536,15.845,8.777,31.805,10.075,33.572l1.754,2.388L223.285,230.039z M197.048,227.039h23.4
					c-3.588-5.577-11.25-19.469-9.01-33.46c0.854-5.335,3.055-10.128,6.568-14.326c-6.463,2.18-12.48,2.735-16.931,2.735
					c-0.564,0-1.111-0.009-1.64-0.024c2.845,2.377,5.366,6.081,5.4,11.755C205.106,195.514,207.412,213.038,197.048,227.039z" style="fill:#CCCCDE;"></path>
			</g>
			<g>
				<path d="M198.854,155.484" style="fill:#D57E58;"></path>
			</g>
			<path d="M218.529,179.447c0,0-18.549,23.949-4.291,49.093h9.047
				C223.285,228.54,204.46,202.232,218.529,179.447z" style="opacity:0.11;fill:#6E6E96;enable-background:new    ;"></path>
		</g>
		<g style="display:inline;">
			<g>
				<path d="M87.047,165.761c0-12.903-11.228-23.362-25.077-23.362c-0.216,0-0.429,0.008-0.643,0.014
					c-4.373-6.846-12.391-11.432-21.562-11.432c-13.849,0-25.078,10.461-25.078,23.362c0,0.167,0.011,0.33,0.015,0.497
					c-7.574,4.021-12.686,11.609-12.686,20.315c0,12.899,11.227,23.36,25.077,23.36c0.788,0,1.565-0.039,2.334-0.102
					c4.6,5.188,11.56,8.502,19.349,8.502c12.802,0,23.354-8.938,24.88-20.48C81.62,182.516,87.047,174.732,87.047,165.761z" style="fill:#D7F7E4;"></path>
				<path d="M48.776,208.416c-7.675,0-14.908-3.072-19.967-8.454c-0.599,0.036-1.166,0.054-1.716,0.054
					c-14.654,0-26.577-11.152-26.577-24.86c0-8.64,4.833-16.68,12.674-21.193c0.219-13.534,12.056-24.481,26.575-24.481
					c9.006,0,17.491,4.354,22.358,11.418c14.584,0.078,26.424,11.201,26.424,24.862c0,9.012-5.16,17.242-13.521,21.66
					C73.018,199.445,61.88,208.416,48.776,208.416z M30.052,196.858l0.497,0.561c4.507,5.082,11.15,7.997,18.227,7.997
					c11.891,0,21.948-8.244,23.394-19.177l0.105-0.795l0.719-0.354c7.743-3.812,12.553-11.218,12.553-19.329
					c0-12.055-10.577-21.862-23.577-21.862c-0.158,0-0.314,0.005-0.471,0.01l-0.979,0.026l-0.457-0.715
					c-4.231-6.624-12.009-10.739-20.298-10.739c-13.001,0-23.578,9.808-23.578,21.862l0.037,1.388l-0.818,0.435
					c-7.334,3.894-11.89,11.17-11.89,18.99c0,12.054,10.577,21.86,23.577,21.86c0.689,0,1.413-0.031,2.212-0.097L30.052,196.858z" style="fill:#CCCCDE;"></path>
			</g>
			<path d="M61.55,141.557c-0.216,0-0.428,0.008-0.642,0.014
				c-3.506-5.489-9.356-9.524-16.264-10.909c5.466,1.37,10.069,4.694,12.899,9.123c0.183-0.004,2.696,4.336,2.882,4.336
				c11.885,0,17.413,6.403,17.413,17.478c0,7.697-2.883,12.604-9.714,15.965c-1.309,9.906-10.365,17.574-21.351,17.574
				c-6.685,0-12.656-2.841-16.604-7.296c-0.66,0.058-1.327,0.091-2.003,0.091c-11.885,0-21.221-5.633-21.221-16.707
				c0-7.453,3.338-11.129,9.41-15.557c-0.162-0.959-0.836-9.398,1.415-11.648c5.349-5.349,7.771-9.942,12.557-12.318
				c-9.39,3.376-16.055,11.861-16.055,21.797c0,0.168,0.009,0.333,0.013,0.5C6.711,158.018,1.6,165.604,1.6,174.311
				c0,12.899,11.227,23.36,25.077,23.36c0.788,0,1.566-0.038,2.336-0.103c4.6,5.188,11.559,8.502,19.348,8.502
				c12.801,0,23.354-8.938,24.879-20.48c7.961-3.915,13.389-11.703,13.389-20.67C86.627,152.016,75.399,141.557,61.55,141.557z" style="opacity:0.1;fill:#6E6E96;enable-background:new    ;"></path>
			<g>
				<path d="M25.859,178.398c0,0,12.985,2.541,12.985,15.25c0,0,3.497,21.586-10.018,36.859h31.207
					c-0.31-0.43-27.257-36.431,2.733-57.832C44.476,183.133,25.859,178.398,25.859,178.398z" style="fill:#EDE3DA;"></path>
				<path d="M60.033,232.008H25.496l2.207-2.494c12.868-14.542,9.694-35.417,9.66-35.627l-0.019-0.238
					c0-10.27-9.491-13.206-11.455-13.703c-0.263-0.058-0.4-0.093-0.4-0.093l0.658-2.926c0,0,0.153,0.029,0.428,0.098
					c1.043,0.228,4.74,0.943,9.863,0.943c6.41,0,16.051-1.145,25.583-6.594l1.616,2.522c-7.445,5.313-11.864,12.03-13.134,19.965
					c-2.7,16.869,9.337,33.851,10.719,35.731l1.754,2.389L60.033,232.008z M31.979,229.008H57.19
					c-3.764-5.817-12.043-20.668-9.649-35.62c0.922-5.759,3.326-10.922,7.174-15.43c-6.976,2.402-13.483,3.01-18.277,3.01
					c-0.696,0-1.366-0.013-2.009-0.034c3.091,2.504,5.878,6.462,5.914,12.597C40.625,195.397,43.106,214.126,31.979,229.008z" style="fill:#CCCCDE;"></path>
			</g>
			<g>
				<path d="M34.082,152.908" style="fill:#D57E58;"></path>
			</g>
			<path d="M54.982,178.363c0,0-19.704,25.438-4.56,52.146h9.61
				C60.032,230.509,40.037,202.564,54.982,178.363z" style="opacity:0.11;fill:#6E6E96;enable-background:new    ;"></path>
		</g>
	</g>
	<g style="display:none;" id="Layer_3_4_">
		<g style="display:inline;">
			<g>
				<path d="M83.841,142.264c0-11.381-9.9-20.604-22.113-20.604c-0.191,0-0.379,0.008-0.566,0.014
					c-3.855-6.037-10.927-10.083-19.014-10.083c-12.213,0-22.114,9.224-22.114,20.604c0,0.147,0.009,0.294,0.012,0.439
					c-6.678,3.546-11.186,10.235-11.186,17.911c0,11.38,9.9,20.604,22.113,20.604c0.694,0,1.381-0.033,2.059-0.094
					c4.057,4.577,10.195,7.497,17.062,7.497c11.29,0,20.595-7.884,21.941-18.06C79.055,157.039,83.841,150.174,83.841,142.264z" style="fill:#D7F7E4;"></path>
				<path d="M50.094,180.052c-6.789,0-13.187-2.705-17.676-7.447c-0.488,0.029-0.972,0.044-1.445,0.044
					c-13.021,0-23.613-9.916-23.613-22.104c0-7.648,4.26-14.769,11.179-18.789c0.25-11.986,10.745-21.665,23.609-21.665
					c7.967,0,15.476,3.838,19.808,10.07c12.916,0.115,23.385,9.986,23.385,22.104c0,7.986-4.554,15.28-11.938,19.213
					C71.579,172.121,61.705,180.052,50.094,180.052z M33.653,169.493l0.502,0.566c3.938,4.443,9.748,6.992,15.939,6.992
					c10.397,0,19.19-7.204,20.455-16.756l0.105-0.796l0.72-0.354c6.765-3.328,10.968-9.797,10.968-16.883
					c0-10.534-9.247-19.104-20.613-19.104c-0.137,0-0.272,0.005-0.407,0.009l-0.964,0.03l-0.459-0.719
					c-3.699-5.792-10.5-9.39-17.75-9.39c-11.367,0-20.614,8.57-20.614,19.104l0.03,1.332l-0.814,0.433
					c-6.409,3.402-10.39,9.758-10.39,16.586c0,10.534,9.247,19.104,20.613,19.104c0.625,0,1.273-0.029,1.926-0.088L33.653,169.493z" style="fill:#CCCCDE;"></path>
			</g>
			<path d="M61.355,120.917c-0.19,0-0.377,0.009-0.566,0.014
				c-3.091-4.841-8.25-8.4-14.343-9.621c4.821,1.209,8.88,4.142,11.375,8.046c0.163-0.004,2.378,3.825,2.542,3.825
				c10.48,0,15.354,5.647,15.354,15.412c0,6.788-2.542,11.113-8.566,14.075c-1.155,8.734-9.141,15.5-18.827,15.5
				c-5.896,0-11.161-2.503-14.642-6.432c-0.582,0.05-1.17,0.078-1.766,0.078c-10.481,0-18.712-4.969-18.712-14.73
				c0-6.577,2.942-9.814,8.299-13.719c-0.143-0.844-0.738-8.288,1.247-10.272c4.716-4.717,6.854-8.769,11.073-10.864
				c-8.281,2.978-14.158,10.459-14.158,19.226c0,0.146,0.008,0.295,0.011,0.439c-6.679,3.547-11.186,10.232-11.186,17.909
				c0,11.382,9.9,20.606,22.113,20.606c0.696,0,1.381-0.035,2.061-0.096c4.056,4.576,10.192,7.496,17.062,7.496
				c11.288,0,20.594-7.884,21.939-18.062c7.02-3.451,11.808-10.314,11.808-18.229C83.47,130.143,73.57,120.917,61.355,120.917z" style="opacity:0.1;fill:#6E6E96;enable-background:new    ;"></path>
			<g>
				<path d="M29.882,153.408c0,0,11.452,2.24,11.452,13.445c0,0,3.083,19.037-8.834,32.506h27.519
					c-0.272-0.381-24.036-32.127,2.41-50.997C46.299,157.583,29.882,153.408,29.882,153.408z" style="fill:#EDE3DA;"></path>
				<path d="M60.019,200.859H29.17l2.207-2.494c11.315-12.788,8.506-31.089,8.477-31.271l-0.02-0.24
					c0-8.917-8.25-11.475-9.965-11.908c-0.234-0.052-0.356-0.083-0.356-0.083l0.658-2.926c0,0,0.137,0.025,0.385,0.088
					c0.92,0.2,4.162,0.826,8.657,0.826c5.631,0,14.101-1.004,22.473-5.791l1.616,2.523c-6.518,4.651-10.389,10.527-11.506,17.467
					c-2.377,14.768,8.199,29.735,9.413,31.394l1.747,2.386L60.019,200.859z M35.632,197.859h21.56
					c-3.402-5.336-10.451-18.291-8.359-31.286c0.788-4.897,2.784-9.307,5.957-13.185c-5.948,1.959-11.473,2.462-15.578,2.462
					c-0.433,0-0.854-0.005-1.264-0.015c2.596,2.244,4.852,5.691,4.886,10.899C43.091,168.455,45.219,184.761,35.632,197.859z" style="fill:#CCCCDE;"></path>
			</g>
			<g>
				<path d="M37.133,130.929" style="fill:#D57E58;"></path>
			</g>
			<path d="M55.564,153.376c0,0-17.375,22.435-4.021,45.983h8.475
				C60.018,199.359,42.386,174.719,55.564,153.376z" style="opacity:0.11;fill:#6E6E96;enable-background:new    ;"></path>
		</g>
		<g style="display:inline;">
			<g>
				<path d="M251,141.002c0-10.657-9.271-19.296-20.708-19.296c-0.181,0-0.354,0.008-0.53,0.013
					c-3.611-5.654-10.23-9.444-17.806-9.444c-11.437,0-20.709,8.639-20.709,19.296c0,0.138,0.009,0.273,0.012,0.411
					c-6.253,3.32-10.476,9.584-10.476,16.772c0,10.654,9.271,19.295,20.708,19.295c0.649,0,1.292-0.03,1.929-0.087
					c3.798,4.285,9.546,7.021,15.979,7.021c10.568,0,19.285-7.381,20.545-16.914C246.518,154.836,251,148.409,251,141.002z" style="fill:#D7F7E4;"></path>
				<path d="M219.398,176.484c-6.368,0-12.372-2.532-16.593-6.973c-0.442,0.025-0.882,0.038-1.314,0.038
					c-12.245,0-22.208-9.328-22.208-20.795c0-7.179,3.988-13.862,10.47-17.649c0.266-11.253,10.124-20.331,22.203-20.331
					c7.473,0,14.519,3.594,18.6,9.433c12.124,0.133,21.944,9.41,21.944,20.794c0,7.498-4.267,14.347-11.19,18.053
					C239.575,169.046,230.302,176.484,219.398,176.484z M204.041,166.401l0.502,0.566c3.67,4.142,9.085,6.517,14.855,6.517
					c9.688,0,17.882-6.711,19.058-15.61l0.105-0.796l0.72-0.354c6.303-3.102,10.219-9.126,10.219-15.723
					c0-9.812-8.616-17.796-19.208-17.796c-0.115,0-0.228,0.004-0.339,0.007l-0.998,0.028l-0.457-0.715
					c-3.448-5.398-9.787-8.751-16.542-8.751c-10.592,0-19.209,7.983-19.209,17.796l0.031,1.303l-0.816,0.434
					c-5.97,3.17-9.679,9.089-9.679,15.447c0,9.812,8.616,17.795,19.208,17.795c0.587,0,1.191-0.027,1.796-0.081L204.041,166.401z" style="fill:#CCCCDE;"></path>
			</g>
			<path d="M229.943,121.011c-0.18,0-0.354,0.008-0.53,0.012
				c-2.896-4.533-7.729-7.866-13.433-9.01c4.515,1.132,8.316,3.878,10.651,7.534c0.152-0.004,2.228,3.582,2.382,3.582
				c9.812,0,14.377,5.289,14.377,14.434c0,6.356-2.382,10.405-8.02,13.186c-1.083,8.179-8.562,14.509-17.633,14.509
				c-5.519,0-10.45-2.343-13.713-6.021c-0.547,0.046-1.096,0.07-1.653,0.07c-9.817,0-17.524-4.651-17.524-13.794
				c0-6.157,2.756-9.19,7.771-12.849c-0.137-0.792-0.689-7.761,1.169-9.618c4.415-4.417,6.418-8.211,10.368-10.174
				c-7.754,2.789-13.258,9.795-13.258,18.004c0,0.137,0.006,0.271,0.012,0.411c-6.256,3.32-10.479,9.583-10.479,16.771
				c0,10.653,9.271,19.295,20.709,19.295c0.649,0,1.293-0.032,1.928-0.088c3.799,4.287,9.545,7.021,15.979,7.021
				c10.57,0,19.284-7.382,20.545-16.914c6.574-3.232,11.057-9.66,11.057-17.068C250.652,129.65,241.381,121.011,229.943,121.011z" style="opacity:0.1;fill:#6E6E96;enable-background:new    ;"></path>
			<g>
				<path d="M200.471,151.436c0,0,10.725,2.101,10.725,12.596c0,0,2.888,17.824-8.272,30.438h25.771
					c-0.256-0.354-22.51-30.083,2.258-47.755C215.843,155.348,200.471,151.436,200.471,151.436z" style="fill:#EDE3DA;"></path>
				<path d="M228.693,195.97h-29.101l2.207-2.494c10.54-11.913,7.942-29.034,7.915-29.206l-0.02-0.238
					c0-8.28-7.663-10.659-9.26-11.064c-0.22-0.048-0.335-0.077-0.335-0.077l0.658-2.926c0,0,0.13,0.024,0.363,0.083
					c0.861,0.188,3.891,0.773,8.093,0.773c5.259,0,13.171-0.938,20.992-5.408l1.615,2.523c-6.091,4.347-9.705,9.838-10.741,16.321
					c-2.212,13.834,7.672,27.762,8.806,29.304l1.757,2.389L228.693,195.97z M206.043,192.97h19.824
					c-3.229-5.085-9.684-17.081-7.749-29.187c0.721-4.511,2.531-8.582,5.403-12.173c-5.922,1.902-11.316,2.28-15.238,2.2
					c2.362,2.119,4.379,5.324,4.412,10.103C212.94,165.56,214.902,180.717,206.043,192.97z" style="fill:#CCCCDE;"></path>
			</g>
			<g>
				<path d="M207.262,130.389" style="fill:#D57E58;"></path>
			</g>
			<path d="M224.521,151.408c0,0-16.271,21.008-3.765,43.062h7.937
				C228.689,194.47,212.18,171.395,224.521,151.408z" style="opacity:0.11;fill:#6E6E96;enable-background:new    ;"></path>
		</g>
		<g style="display:inline;">
			<g>
				<path d="M214.877,142.732c0-16.358-14.232-29.619-31.789-29.619c-0.273,0-0.545,0.012-0.814,0.019
					c-5.543-8.678-15.707-14.497-27.332-14.497c-17.557,0-31.792,13.262-31.792,29.621c0,0.212,0.014,0.421,0.018,0.637
					c-9.602,5.099-16.082,14.709-16.082,25.743c0,16.358,14.234,29.621,31.79,29.621c0.998,0,1.985-0.049,2.961-0.135
					c5.832,6.583,14.653,10.776,24.527,10.776c16.229,0,29.606-11.33,31.542-25.961
					C207.996,163.975,214.877,154.104,214.877,142.732z" style="fill:#D7F7E4;"></path>
				<path d="M166.364,196.398c-9.688,0-18.808-3.899-25.144-10.724c-0.801,0.055-1.587,0.082-2.345,0.082
					c-18.356,0-33.29-13.961-33.29-31.121c0-10.874,6.131-20.993,16.065-26.622c0.14-17.049,15.02-30.879,33.291-30.879
					c11.356,0,22.051,5.527,28.128,14.479c0.006,0,0.013,0,0.019,0c18.355,0,33.289,13.96,33.289,31.119
					c0,11.339-6.531,21.689-17.1,27.192C196.853,185.072,182.852,196.398,166.364,196.398z M142.458,182.562l0.502,0.565
					c5.782,6.527,14.313,10.271,23.404,10.271c15.274,0,28.195-10.601,30.055-24.657l0.105-0.796l0.72-0.354
					c9.951-4.895,16.133-14.42,16.133-24.859c0-15.505-13.588-28.119-30.289-28.119c-0.179,0-0.356,0.006-0.533,0.011l-1.09,0.028
					l-0.455-0.713c-5.439-8.515-15.428-13.805-26.068-13.805c-16.703,0-30.292,12.615-30.292,28.121
					c0,0.103,0.004,0.204,0.008,0.307l0.026,1.224l-0.813,0.432c-9.429,5.006-15.286,14.362-15.286,24.418
					c0,15.506,13.588,28.121,30.29,28.121c0.906,0,1.857-0.043,2.829-0.129L142.458,182.562z" style="fill:#CCCCDE;"></path>
			</g>
			<path d="M182.555,112.047c-0.271,0-0.544,0.012-0.814,0.019
				c-4.444-6.959-11.86-12.076-20.618-13.83c6.93,1.738,12.767,5.954,16.353,11.565c0.233-0.006,3.418,5.498,3.654,5.498
				c15.064,0,22.074,8.118,22.074,22.156c0,9.758-3.656,15.977-12.314,20.238c-1.66,12.552-13.143,22.276-27.065,22.276
				c-8.476,0-16.046-3.599-21.05-9.247c-0.838,0.069-1.684,0.112-2.539,0.112c-15.068,0-26.9-7.14-26.9-21.177
				c0-9.452,4.23-14.109,11.929-19.723c-0.206-1.216-1.06-11.914,1.792-14.766c6.781-6.781,9.853-12.606,15.917-15.618
				c-11.904,4.28-20.353,15.036-20.353,27.636c0,0.213,0.011,0.422,0.017,0.638c-9.602,5.096-16.082,14.711-16.082,25.743
				c0,16.358,14.232,29.621,31.791,29.621c1,0,1.984-0.047,2.961-0.133c5.83,6.584,14.653,10.775,24.527,10.775
				c16.227,0,29.604-11.332,31.54-25.963c10.092-4.963,16.972-14.831,16.972-26.202
				C214.344,125.308,200.111,112.047,182.555,112.047z" style="opacity:0.1;fill:#6E6E96;enable-background:new    ;"></path>
			<g>
				<path d="M137.309,158.753c0,0,16.463,3.222,16.463,19.334c0,0,4.433,27.365-12.701,46.729h39.562
					c-0.394-0.547-34.554-46.182,3.466-73.31C160.909,164.758,137.309,158.753,137.309,158.753z" style="fill:#EDE3DA;"></path>
				<path d="M180.632,226.316H137.74l2.207-2.494c16.444-18.586,12.387-45.229,12.344-45.496l-0.02-0.239
					c0-13.325-12.303-17.125-14.83-17.764c-0.331-0.072-0.503-0.116-0.503-0.116l0.658-2.926c0,0,0.189,0.036,0.531,0.121
					c1.328,0.29,6.058,1.208,12.604,1.208c8.172,0,20.464-1.458,32.622-8.406l1.615,2.523c-9.526,6.798-15.183,15.398-16.812,25.563
					c-3.452,21.528,11.896,43.201,13.658,45.602l1.752,2.388L180.632,226.316z M144.258,223.316h33.514
					c-4.521-6.848-15.684-26.131-12.577-45.501c1.237-7.722,4.603-14.592,10.036-20.521c-9.342,3.463-18.123,4.315-24.499,4.315
					c-1.352,0-2.626-0.037-3.814-0.098c4.228,3.059,8.315,8.161,8.354,16.456C155.604,180.151,158.896,204.394,144.258,223.316z" style="fill:#CCCCDE;"></path>
			</g>
			<g>
				<path d="M147.732,126.44" style="fill:#D57E58;"></path>
			</g>
			<path d="M174.229,158.709c0,0-24.978,32.249-5.779,66.104h12.183
				C180.631,224.812,155.283,189.389,174.229,158.709z" style="opacity:0.11;fill:#6E6E96;enable-background:new    ;"></path>
		</g>
		<g style="display:inline;">
			<g>
				<path d="M144.174,143.827c0-13.429-11.686-24.317-26.098-24.317c-0.225,0-0.446,0.01-0.669,0.016
					c-4.551-7.125-12.895-11.901-22.44-11.901c-14.413,0-26.1,10.888-26.1,24.316c0,0.176,0.012,0.35,0.015,0.521
					C60.999,136.646,55.68,144.54,55.68,153.6c0,13.432,11.685,24.316,26.099,24.316c0.819,0,1.629-0.04,2.43-0.105
					c4.787,5.399,12.031,8.846,20.137,8.846c13.323,0,24.306-9.303,25.893-21.313C138.523,161.268,144.174,153.164,144.174,143.827z" style="fill:#D7F7E4;"></path>
				<path d="M104.346,188.156c-7.983,0-15.503-3.197-20.755-8.798c-0.63,0.039-1.228,0.058-1.812,0.058
					c-15.218,0-27.599-11.581-27.599-25.816c0-8.979,5.03-17.334,13.189-22.016c0.207-14.071,12.507-25.459,27.597-25.459
					c9.362,0,18.183,4.533,23.235,11.885c15.161,0.063,27.472,11.621,27.472,25.817c0,9.368-5.368,17.921-14.065,22.501
					C129.538,178.828,117.966,188.156,104.346,188.156z M84.834,176.255l0.498,0.561c4.699,5.301,11.63,8.341,19.015,8.341
					c12.406,0,22.898-8.603,24.406-20.01l0.105-0.796l0.72-0.354c8.078-3.975,13.097-11.703,13.097-20.17
					c0-12.582-11.034-22.817-24.598-22.817c-0.141,0-0.281,0.005-0.42,0.009l-1.057,0.029l-0.457-0.714
					c-4.416-6.914-12.53-11.208-21.176-11.208c-13.564,0-24.6,10.235-24.6,22.816l0.03,1.414l-0.812,0.432
					C61.934,137.849,57.18,145.44,57.18,153.6c0,12.581,11.035,22.816,24.599,22.816c0.726,0,1.48-0.033,2.308-0.101L84.834,176.255
					z" style="fill:#CCCCDE;"></path>
			</g>
			<path d="M117.637,118.636c-0.224,0-0.445,0.009-0.668,0.015
				c-3.649-5.713-9.738-9.913-16.928-11.354c5.689,1.427,10.48,4.887,13.426,9.495c0.191-0.005,2.806,4.513,3,4.513
				c12.368,0,18.123,6.665,18.123,18.188c0,8.011-3.002,13.116-10.108,16.614c-1.363,10.307-10.788,18.291-22.22,18.291
				c-6.958,0-13.173-2.957-17.282-7.594c-0.687,0.061-1.381,0.094-2.084,0.094c-12.37,0-22.084-5.861-22.084-17.385
				c0-7.761,3.472-11.584,9.792-16.191c-0.168-0.999-0.87-9.781,1.473-12.122c5.565-5.568,8.088-10.349,13.067-12.823
				c-9.773,3.515-16.71,12.344-16.71,22.689c0,0.174,0.01,0.347,0.015,0.52c-7.885,4.184-13.203,12.077-13.203,21.139
				c0,13.43,11.686,24.315,26.1,24.315c0.821,0,1.628-0.04,2.43-0.106c4.788,5.401,12.031,8.847,20.138,8.847
				c13.322,0,24.303-9.302,25.895-21.314c8.285-4.075,13.937-12.176,13.937-21.509C143.736,129.523,132.051,118.636,117.637,118.636
				z" style="opacity:0.1;fill:#6E6E96;enable-background:new    ;"></path>
			<g>
				<path d="M80.492,156.979c0,0,13.514,2.646,13.514,15.875c0,0,3.639,22.463-10.428,38.361h32.479
					c-0.323-0.447-28.369-37.913,2.845-60.188C99.867,161.908,80.492,156.979,80.492,156.979z" style="fill:#EDE3DA;"></path>
				<path d="M116.057,212.715H80.248l2.207-2.494c13.414-15.16,10.105-36.91,10.07-37.128l-0.019-0.239
					c0-10.736-9.918-13.806-11.969-14.325c-0.272-0.06-0.415-0.096-0.415-0.096l0.658-2.926c0,0,0.158,0.03,0.443,0.102
					c1.087,0.237,4.943,0.984,10.286,0.984c6.676,0,16.719-1.191,26.648-6.868l1.616,2.523
					c-7.764,5.541-12.372,12.547-13.696,20.824c-2.812,17.585,9.729,35.27,11.169,37.228l1.755,2.389L116.057,212.715z
					 M86.737,209.715h26.473c-3.884-5.979-12.594-21.491-10.095-37.117c0.969-6.057,3.517-11.48,7.602-16.207
					c-7.33,2.559-14.177,3.202-19.208,3.202c-0.793,0-1.554-0.016-2.281-0.043c3.263,2.593,6.241,6.727,6.277,13.186
					C95.795,174.651,98.398,194.216,86.737,209.715z" style="fill:#CCCCDE;"></path>
			</g>
			<g>
				<path d="M89.051,130.452" style="fill:#D57E58;"></path>
			</g>
			<path d="M110.802,156.943c0,0-20.506,26.476-4.745,54.271h10.001
				C116.058,211.216,95.248,182.131,110.802,156.943z" style="opacity:0.11;fill:#6E6E96;enable-background:new    ;"></path>
		</g>
		<g style="display:inline;">
			<g>
				<path d="M249.704,167.583c0-12.149-10.57-21.997-23.608-21.997c-0.201,0-0.4,0.008-0.603,0.014
					c-4.119-6.444-11.667-10.765-20.3-10.765c-13.039,0-23.607,9.849-23.607,21.997c0,0.158,0.012,0.312,0.014,0.471
					c-7.129,3.788-11.942,10.93-11.942,19.124c0,12.151,10.567,22,23.606,22c0.741,0,1.475-0.039,2.195-0.102
					c4.331,4.89,10.887,8.006,18.219,8.006c12.053,0,21.986-8.417,23.424-19.283C244.593,183.357,249.704,176.029,249.704,167.583z" style="fill:#D7F7E4;"></path>
				<path d="M213.678,207.831c-7.24,0-14.06-2.891-18.834-7.956c-0.55,0.035-1.071,0.052-1.58,0.052
					c-13.844,0-25.106-10.542-25.106-23.5c0-8.146,4.549-15.729,11.933-20.002c0.232-12.769,11.404-23.09,25.104-23.09
					c8.488,0,16.489,4.099,21.095,10.752c13.756,0.097,24.916,10.6,24.916,23.496c0,8.501-4.858,16.269-12.734,20.449
					C236.553,199.374,226.042,207.831,213.678,207.831z M196.081,196.766l0.501,0.565c4.222,4.767,10.453,7.5,17.096,7.5
					c11.15,0,20.581-7.729,21.937-17.979l0.105-0.795l0.719-0.354c7.258-3.575,11.766-10.518,11.766-18.119
					c0-11.302-9.918-20.497-22.108-20.497c-0.145,0-0.287,0.005-0.432,0.009l-0.977,0.029l-0.458-0.717
					c-3.972-6.213-11.266-10.072-19.036-10.072c-12.19,0-22.107,9.195-22.107,20.497l0.024,1.366l-0.807,0.429
					c-6.876,3.653-11.146,10.474-11.146,17.8c0,11.304,9.917,20.5,22.106,20.5c0.646,0,1.321-0.031,2.065-0.096L196.081,196.766z" style="fill:#CCCCDE;"></path>
			</g>
			<path d="M225.698,144.792c-0.203,0-0.403,0.011-0.605,0.017
				c-3.3-5.168-8.808-8.969-15.312-10.272c5.146,1.292,9.479,4.421,12.145,8.59c0.172-0.004,2.538,4.084,2.713,4.084
				c11.188,0,16.394,6.026,16.394,16.453c0,7.246-2.714,11.865-9.146,15.03c-1.231,9.322-9.759,16.548-20.101,16.548
				c-6.295,0-11.915-2.677-15.634-6.869c-0.62,0.054-1.252,0.084-1.885,0.084c-11.189,0-19.979-5.304-19.979-15.726
				c0-7.022,3.14-10.479,8.858-14.65c-0.152-0.903-0.789-8.846,1.332-10.965c5.035-5.036,7.316-9.362,11.82-11.6
				c-8.838,3.18-15.113,11.166-15.113,20.525c0,0.156,0.01,0.312,0.015,0.473c-7.132,3.784-11.945,10.926-11.945,19.12
				c0,12.147,10.569,21.997,23.61,21.997c0.742,0,1.473-0.035,2.195-0.099c4.332,4.888,10.885,8.004,18.217,8.004
				c12.053,0,21.984-8.417,23.424-19.282c7.494-3.686,12.607-11.016,12.607-19.459C249.307,154.643,238.736,144.792,225.698,144.792
				z" style="opacity:0.1;fill:#6E6E96;enable-background:new    ;"></path>
			<g>
				<path d="M192.096,179.48c0,0,12.227,2.392,12.227,14.356c0,0,3.292,20.319-9.434,34.702h29.381
					c-0.291-0.403-25.662-34.297,2.574-54.444C209.624,183.939,192.096,179.48,192.096,179.48z" style="fill:#EDE3DA;"></path>
				<path d="M224.27,230.039h-32.711l2.207-2.494c12.087-13.661,9.107-33.272,9.076-33.47l-0.02-0.238
					c0-9.599-8.876-12.349-10.717-12.814c-0.25-0.055-0.38-0.088-0.38-0.088l0.658-2.926c0,0,0.146,0.027,0.408,0.093
					c0.983,0.215,4.456,0.887,9.269,0.887c6.022,0,15.082-1.075,24.039-6.195l1.615,2.522c-6.989,4.987-11.138,11.292-12.33,18.738
					c-2.537,15.845,8.777,31.805,10.075,33.572l1.754,2.388L224.27,230.039z M198.032,227.039h23.399
					c-3.587-5.577-11.249-19.469-9.009-33.46c0.854-5.335,3.055-10.128,6.568-14.326c-6.464,2.18-12.48,2.735-16.931,2.735
					c-0.564,0-1.111-0.009-1.639-0.024c2.845,2.377,5.366,6.082,5.4,11.755C206.092,195.514,208.397,213.038,198.032,227.039z" style="fill:#CCCCDE;"></path>
			</g>
			<g>
				<path d="M199.838,155.484" style="fill:#D57E58;"></path>
			</g>
			<path d="M219.516,179.447c0,0-18.55,23.949-4.293,49.093h9.047
				C224.27,228.54,205.443,202.232,219.516,179.447z" style="opacity:0.11;fill:#6E6E96;enable-background:new    ;"></path>
		</g>
		<g style="display:inline;">
			<g>
				<path d="M88.032,165.761c0-12.903-11.228-23.362-25.077-23.362c-0.216,0-0.429,0.008-0.643,0.014
					c-4.374-6.846-12.391-11.434-21.562-11.434c-13.849,0-25.078,10.461-25.078,23.364c0,0.167,0.011,0.33,0.015,0.497
					c-7.573,4.021-12.686,11.609-12.686,20.314c0,12.9,11.227,23.361,25.077,23.361c0.788,0,1.565-0.039,2.335-0.102
					c4.6,5.188,11.56,8.502,19.349,8.502c12.801,0,23.354-8.938,24.88-20.48C82.604,182.516,88.032,174.732,88.032,165.761z" style="fill:#D7F7E4;"></path>
				<path d="M49.762,208.416c-7.675,0-14.908-3.072-19.967-8.454c-0.601,0.036-1.167,0.054-1.717,0.054
					c-14.655,0-26.577-11.152-26.577-24.861c0-8.639,4.833-16.678,12.674-21.192c0.219-13.535,12.056-24.483,26.575-24.483
					c9.004,0,17.49,4.355,22.358,11.42c14.584,0.078,26.424,11.201,26.424,24.862c0,9.011-5.16,17.241-13.521,21.66
					C74.004,199.445,62.867,208.416,49.762,208.416z M31.039,196.858l0.497,0.561c4.507,5.082,11.15,7.997,18.227,7.997
					c11.891,0,21.948-8.244,23.393-19.177l0.105-0.795l0.719-0.354c7.743-3.812,12.553-11.219,12.553-19.329
					c0-12.055-10.577-21.862-23.577-21.862c-0.158,0-0.314,0.005-0.471,0.01l-0.979,0.026l-0.457-0.715
					c-4.233-6.625-12.011-10.741-20.298-10.741c-13.001,0-23.578,9.809-23.578,21.864l0.036,1.388l-0.817,0.435
					c-7.334,3.894-11.89,11.17-11.89,18.989c0,12.055,10.577,21.861,23.577,21.861c0.688,0,1.412-0.031,2.213-0.097L31.039,196.858z" style="fill:#CCCCDE;"></path>
			</g>
			<path d="M62.534,141.557c-0.215,0-0.428,0.008-0.642,0.014
				c-3.506-5.489-9.356-9.524-16.264-10.909c5.465,1.37,10.069,4.694,12.899,9.123c0.183-0.004,2.696,4.336,2.882,4.336
				c11.885,0,17.413,6.403,17.413,17.478c0,7.697-2.883,12.604-9.714,15.965c-1.309,9.906-10.365,17.574-21.351,17.574
				c-6.685,0-12.656-2.841-16.605-7.296c-0.659,0.058-1.327,0.091-2.003,0.091c-11.885,0-21.221-5.633-21.221-16.707
				c0-7.453,3.337-11.129,9.41-15.557c-0.163-0.959-0.836-9.398,1.415-11.648c5.349-5.349,7.771-9.942,12.557-12.318
				c-9.39,3.376-16.056,11.861-16.056,21.798c0,0.168,0.01,0.333,0.014,0.5c-7.574,4.021-12.685,11.606-12.685,20.313
				c0,12.899,11.227,23.36,25.077,23.36c0.788,0,1.566-0.038,2.335-0.102c4.6,5.188,11.56,8.501,19.349,8.501
				c12.801,0,23.354-8.938,24.879-20.479c7.961-3.916,13.389-11.702,13.389-20.67C87.612,152.016,76.384,141.557,62.534,141.557z" style="opacity:0.1;fill:#6E6E96;enable-background:new    ;"></path>
			<g>
				<path d="M26.843,178.398c0,0,12.984,2.541,12.984,15.25c0,0,3.497,21.586-10.018,36.859h31.207
					c-0.31-0.43-27.257-36.431,2.733-57.832C45.459,183.133,26.843,178.398,26.843,178.398z" style="fill:#EDE3DA;"></path>
				<path d="M61.016,232.008H26.479l2.207-2.494c12.895-14.572,9.695-35.417,9.661-35.625l-0.02-0.24
					c0-10.27-9.49-13.206-11.455-13.703c-0.263-0.059-0.4-0.093-0.4-0.093l0.658-2.926c0,0,0.153,0.029,0.428,0.098
					c1.044,0.228,4.741,0.943,9.862,0.943c6.41,0,16.051-1.145,25.583-6.594l1.616,2.522c-7.445,5.313-11.864,12.03-13.134,19.965
					c-2.701,16.868,9.337,33.851,10.719,35.731l1.754,2.389L61.016,232.008z M32.962,229.008h25.211
					c-3.764-5.817-12.043-20.669-9.649-35.62c0.922-5.759,3.326-10.922,7.174-15.43c-6.976,2.402-13.483,3.01-18.276,3.01
					c-0.696,0-1.366-0.013-2.009-0.034c3.091,2.504,5.878,6.462,5.914,12.597C41.608,195.397,44.089,214.126,32.962,229.008z" style="fill:#CCCCDE;"></path>
			</g>
			<g>
				<path d="M35.066,152.908" style="fill:#D57E58;"></path>
			</g>
			<path d="M55.966,178.363c0,0-19.704,25.438-4.56,52.146h9.61
				C61.016,230.509,41.021,202.564,55.966,178.363z" style="opacity:0.11;fill:#6E6E96;enable-background:new    ;"></path>
		</g>
	</g>
	<g>
		<g>
			<rect height="74.153" width="18.717" style="fill:#FFD6D6;" y="174.034" x="135.475"></rect>
			<path d="M154.191,249.688h-18.717c-0.828,0-1.5-0.672-1.5-1.5v-74.153c0-0.828,0.672-1.5,1.5-1.5h18.717
				c0.828,0,1.5,0.672,1.5,1.5v74.153C155.691,249.016,155.02,249.688,154.191,249.688z M136.975,246.688h15.717v-71.153h-15.717
				V246.688z" style="fill:#CCCCDE;"></path>
		</g>
		<path d="M154.191,186.271h-18.717c-0.828,0-1.5-0.672-1.5-1.5s0.672-1.5,1.5-1.5h18.717
			c0.828,0,1.5,0.672,1.5,1.5S155.02,186.271,154.191,186.271z" style="fill:#CCCCDE;"></path>
		<path d="M154.191,238.668h-18.717c-0.828,0-1.5-0.672-1.5-1.5s0.672-1.5,1.5-1.5h18.717
			c0.828,0,1.5,0.672,1.5,1.5S155.02,238.668,154.191,238.668z" style="fill:#CCCCDE;"></path>
	</g>
	<g>
		<g>
			<rect height="74.153" width="19.215" style="fill:#FFFFFF;" y="174.034" x="116.49"></rect>
			<path d="M135.705,249.688H116.49c-0.829,0-1.5-0.672-1.5-1.5v-74.153c0-0.828,0.671-1.5,1.5-1.5h19.215
				c0.828,0,1.5,0.672,1.5,1.5v74.153C137.205,249.016,136.533,249.688,135.705,249.688z M117.99,246.688h16.215v-71.153H117.99
				V246.688z" style="fill:#CCCCDE;"></path>
		</g>
		<path d="M135.705,186.271H116.49c-0.829,0-1.5-0.672-1.5-1.5s0.671-1.5,1.5-1.5h19.215
			c0.828,0,1.5,0.672,1.5,1.5S136.533,186.271,135.705,186.271z" style="fill:#CCCCDE;"></path>
		<path d="M135.843,238.668H116.49c-0.829,0-1.5-0.672-1.5-1.5s0.671-1.5,1.5-1.5h19.353
			c0.828,0,1.5,0.672,1.5,1.5S136.671,238.668,135.843,238.668z" style="fill:#CCCCDE;"></path>
	</g>
	<g>
		<g>
			<rect height="74.153" width="18.717" style="fill:#DBF8FF;" y="174.034" x="153.512"></rect>
			<path d="M172.229,249.688h-18.717c-0.828,0-1.5-0.672-1.5-1.5v-74.153c0-0.828,0.672-1.5,1.5-1.5h18.717
				c0.828,0,1.5,0.672,1.5,1.5v74.153C173.729,249.016,173.057,249.688,172.229,249.688z M155.012,246.688h15.717v-71.153h-15.717
				V246.688z" style="fill:#CCCCDE;"></path>
		</g>
		<path d="M172.229,186.271h-18.717c-0.828,0-1.5-0.672-1.5-1.5s0.672-1.5,1.5-1.5h18.717
			c0.828,0,1.5,0.672,1.5,1.5S173.057,186.271,172.229,186.271z" style="fill:#CCCCDE;"></path>
		<path d="M172.229,238.668h-18.717c-0.828,0-1.5-0.672-1.5-1.5s0.672-1.5,1.5-1.5h18.717
			c0.828,0,1.5,0.672,1.5,1.5S173.057,238.668,172.229,238.668z" style="fill:#CCCCDE;"></path>
	</g>
	<g>
		<g>
			<rect height="74.153" width="18.718" style="fill:#FFFDE6;" y="174.034" x="171.334"></rect>
			<path d="M190.052,249.688h-18.718c-0.828,0-1.5-0.672-1.5-1.5v-74.153c0-0.828,0.672-1.5,1.5-1.5h18.718
				c0.828,0,1.5,0.672,1.5,1.5v74.153C191.552,249.016,190.88,249.688,190.052,249.688z M172.834,246.688h15.718v-71.153h-15.718
				V246.688z" style="fill:#CCCCDE;"></path>
		</g>
		<path d="M190.051,186.271h-18.717c-0.828,0-1.5-0.672-1.5-1.5s0.672-1.5,1.5-1.5h18.717
			c0.828,0,1.5,0.672,1.5,1.5S190.879,186.271,190.051,186.271z" style="fill:#CCCCDE;"></path>
		<path d="M190.051,238.668h-18.717c-0.828,0-1.5-0.672-1.5-1.5s0.672-1.5,1.5-1.5h18.717
			c0.828,0,1.5,0.672,1.5,1.5S190.879,238.668,190.051,238.668z" style="fill:#CCCCDE;"></path>
	</g>
</g>
<g id="Layer_5">
	<rect height="3" width="185.033" style="fill:#CCCCDE;" y="248.107" x="43.084"></rect>
	<rect height="3" width="6.989" style="fill:#CCCCDE;" y="248.107" x="241.896"></rect>
	<rect height="3" width="13.779" style="fill:#CCCCDE;" y="248.107" x="11.59"></rect>
	<g>
		<path d="M199.52,128.352h-45.203l-22.428-26.257c-3.844-4.5-11.833-8.184-17.751-8.184H69.653
			c-5.92,0-10.764,4.843-10.764,10.763V231.67c0,9.866,8.071,17.938,17.938,17.938H199.52c9.864,0,17.938-8.07,17.938-17.938
			v-85.382C217.457,136.423,209.385,128.352,199.52,128.352z" style="fill:#FFF2B5;"></path>
		<path d="M210.872,143.061c-1.584,2.564,0.394,82.141-2.304,89.265
			c-2.271,4.528-2.104,8.829-8.93,8.829H75.695c-15.215,0-18.12-16.641-18.12-26.146v16.598c0,9.51,8.154,17.287,18.12,17.287
			h123.944c9.969,0,18.12-7.777,18.12-17.287l-0.753-85.314C217.007,149.468,212.456,140.493,210.872,143.061z" style="opacity:0.15;fill:#FF4D00;enable-background:new    ;"></path>
		<polygon points="84.003,128.352 84.003,121.547 140.723,121.547 
			146.535,128.352" style="opacity:0.15;fill:#FF4D00;enable-background:new    ;"></polygon>
		<path d="M198.459,129.249h-44.562l-22.109-26.255c-3.791-4.502-11.667-8.184-17.501-8.184H70.43
			c-5.835,0-10.609,4.843-10.609,10.762v9.338c0-5.919,1.821-16.668,7.656-16.668h43.854c5.835,0,13.711,3.683,17.501,8.184
			l25.062,32.162h44.562c9.725,0,17.684,8.07,17.684,17.938v-9.336C216.143,137.322,208.184,129.249,198.459,129.249z" style="fill:#FFF0A6;"></path>
		<polygon points="154.318,138.018 84.003,138.018 84.003,129.785 147.287,129.785" style="fill:#FFF0A6;"></polygon>
		<rect height="3" width="70.315" style="fill:#6E6E96;" y="126.852" x="84.003"></rect>
		<path d="M199.52,251.107H76.827c-10.718,0-19.438-8.72-19.438-19.438V104.674
			c0-6.762,5.501-12.263,12.264-12.263h44.483c6.318,0,14.793,3.907,18.893,8.709l21.979,25.731h44.512
			c10.718,0,19.438,8.719,19.438,19.437v85.382C218.958,242.388,210.238,251.107,199.52,251.107z M69.653,95.411
			c-5.108,0-9.264,4.155-9.264,9.263V231.67c0,9.063,7.374,16.438,16.438,16.438H199.52c9.064,0,16.438-7.374,16.438-16.438v-85.382
			c-0.001-9.063-7.375-16.437-16.438-16.437h-45.895l-22.877-26.783c-3.544-4.151-11.151-7.658-16.612-7.658H69.653z" style="fill:#6E6E96;"></path>
	</g>
</g>
</svg>
