<svg xmlns="http://www.w3.org/2000/svg" xmlns:xlink="http://www.w3.org/1999/xlink" width="500" zoomAndPan="magnify" viewBox="0 0 375 374.999991" height="500" preserveAspectRatio="xMidYMid meet" version="1.0"><defs><clipPath id="3232a33c9a"><path d="M 1.894531 246.210938 L 374.644531 246.210938 L 374.644531 375 L 1.894531 375 Z M 1.894531 246.210938 " clip-rule="nonzero"/></clipPath><clipPath id="8bbb3c7942"><path d="M 8.410156 252.929688 L 73 252.929688 L 73 368.699219 L 8.410156 368.699219 Z M 8.410156 252.929688 " clip-rule="nonzero"/></clipPath><clipPath id="aa3c3e762e"><path d="M 78 267.667969 L 124 267.667969 L 124 357 L 78 357 Z M 78 267.667969 " clip-rule="nonzero"/></clipPath></defs><g clip-path="url(#3232a33c9a)"><path fill="#ffffff" d="M -120.023438 3.347656 L 494.675781 3.347656 L 494.675781 618.046875 L -120.023438 618.046875 Z M -120.023438 3.347656 " fill-opacity="1" fill-rule="nonzero"/><path fill="#ffffff" d="M -120.023438 3.347656 L 494.675781 3.347656 L 494.675781 618.046875 L -120.023438 618.046875 Z M -120.023438 3.347656 " fill-opacity="1" fill-rule="nonzero"/></g><g clip-path="url(#8bbb3c7942)"><path fill="#38bfdd" d="M 51.265625 353.546875 L 51.265625 292.867188 L 39.464844 304.65625 L 39.472656 325.074219 L 25.085938 310.691406 L 60.324219 275.460938 L 60.324219 362.605469 L 66.179688 368.460938 L 72.105469 362.527344 L 72.105469 326.910156 L 72.121094 326.910156 L 72.121094 261.273438 L 72.117188 261.273438 L 72.117188 258.871094 L 66.179688 252.929688 L 8.410156 310.691406 Z M 51.265625 353.546875 " fill-opacity="1" fill-rule="nonzero"/></g><g clip-path="url(#aa3c3e762e)"><path fill="#c1ff72" d="M 81.175781 328.433594 L 92.980469 316.640625 L 92.980469 296.414062 L 107.257812 310.691406 L 78.007812 339.945312 L 78.007812 356.628906 L 123.941406 310.691406 L 81.175781 267.941406 Z M 81.175781 328.433594 " fill-opacity="1" fill-rule="nonzero"/></g><path fill="#000000" d="M 142.84375 315.03125 L 151.699219 302.78125 L 142.882812 302.78125 L 142.882812 299.640625 L 153.554688 299.640625 L 153.554688 291.210938 L 152.9375 291.210938 L 151.207031 296.441406 L 142.882812 296.441406 L 146.8125 284.9375 L 155.070312 284.9375 L 154.003906 288.074219 L 170.121094 288.074219 L 170.121094 291.210938 L 162.4375 291.210938 L 162.4375 299.640625 L 171.804688 299.640625 L 171.804688 302.78125 L 161.476562 302.78125 L 159.511719 305.425781 L 165.296875 305.425781 L 171.804688 315.03125 L 162.925781 315.03125 L 157.890625 307.5625 L 152.277344 315.03125 Z M 191.226562 286.21875 C 192.210938 286.21875 193.027344 286.539062 193.683594 287.175781 C 194.332031 287.816406 194.664062 288.644531 194.664062 289.652344 L 194.664062 311.210938 C 194.664062 312.183594 194.332031 313 193.683594 313.664062 C 193.027344 314.320312 192.210938 314.648438 191.226562 314.648438 L 176.585938 314.648438 C 175.605469 314.648438 174.78125 314.320312 174.132812 313.664062 C 173.476562 313 173.148438 312.183594 173.148438 311.210938 L 173.148438 289.652344 C 173.148438 288.644531 173.476562 287.816406 174.132812 287.175781 C 174.78125 286.539062 175.605469 286.21875 176.585938 286.21875 Z M 186.917969 290.207031 C 186.917969 289.984375 186.832031 289.792969 186.660156 289.632812 C 186.488281 289.460938 186.289062 289.375 186.0625 289.375 L 181.75 289.375 C 181.523438 289.375 181.324219 289.460938 181.152344 289.632812 C 180.984375 289.792969 180.898438 289.984375 180.898438 290.207031 L 180.898438 310.65625 C 180.898438 310.886719 180.984375 311.082031 181.152344 311.253906 C 181.324219 311.414062 181.523438 311.488281 181.75 311.488281 L 186.0625 311.488281 C 186.289062 311.488281 186.488281 311.414062 186.660156 311.253906 C 186.832031 311.082031 186.917969 310.886719 186.917969 310.65625 Z M 188.367188 317.441406 C 189.351562 317.441406 190.167969 317.761719 190.824219 318.402344 C 191.472656 319.042969 191.804688 319.871094 191.804688 320.878906 L 191.804688 333.621094 C 191.804688 334.628906 191.472656 335.445312 190.824219 336.074219 C 190.167969 336.714844 189.351562 337.035156 188.367188 337.035156 L 149.90625 337.035156 C 148.9375 337.035156 148.125 336.714844 147.472656 336.074219 C 146.816406 335.445312 146.492188 334.628906 146.492188 333.621094 L 146.492188 320.878906 C 146.492188 319.871094 146.816406 319.042969 147.472656 318.402344 C 148.125 317.761719 148.9375 317.441406 149.90625 317.441406 Z M 156.03125 320.582031 C 155.804688 320.582031 155.605469 320.664062 155.433594 320.835938 C 155.265625 321.007812 155.179688 321.210938 155.179688 321.433594 L 155.179688 325.640625 L 183.160156 325.640625 L 183.160156 321.433594 C 183.160156 321.210938 183.074219 321.007812 182.902344 320.835938 C 182.734375 320.664062 182.53125 320.582031 182.304688 320.582031 Z M 182.304688 333.898438 C 182.53125 333.898438 182.734375 333.8125 182.902344 333.644531 C 183.074219 333.472656 183.160156 333.28125 183.160156 333.066406 L 183.160156 328.796875 L 155.179688 328.796875 L 155.179688 333.066406 C 155.179688 333.28125 155.265625 333.472656 155.433594 333.644531 C 155.605469 333.8125 155.804688 333.898438 156.03125 333.898438 Z M 182.304688 333.898438 " fill-opacity="1" fill-rule="nonzero"/><path fill="#000000" d="M 224.914062 289.078125 L 229.074219 302.566406 L 220.75 302.566406 L 220.089844 300.367188 L 202.460938 302.738281 C 201.863281 302.8125 201.3125 302.753906 200.816406 302.566406 C 200.332031 302.386719 199.945312 302.089844 199.664062 301.691406 C 199.390625 301.296875 199.226562 300.847656 199.171875 300.347656 C 199.113281 299.835938 199.214844 299.300781 199.472656 298.746094 L 205.703125 284.9375 L 214.582031 284.9375 L 208.863281 297.785156 C 208.746094 298.085938 208.761719 298.335938 208.90625 298.53125 C 209.058594 298.71875 209.289062 298.789062 209.589844 298.746094 L 219.191406 297.402344 L 216.609375 289.078125 Z M 233.558594 309.523438 C 232.585938 309.523438 231.773438 309.199219 231.125 308.542969 C 230.46875 307.890625 230.140625 307.082031 230.140625 306.109375 L 230.140625 284.9375 L 239 284.9375 L 239 291.789062 L 251.082031 288.136719 L 251.082031 291.957031 L 239 295.609375 L 239 305.53125 C 239 305.761719 239.085938 305.960938 239.257812 306.128906 C 239.425781 306.300781 239.625 306.386719 239.855469 306.386719 L 251.636719 306.386719 L 249.972656 309.523438 Z M 223.675781 305.875 C 224.65625 305.875 225.472656 306.207031 226.128906 306.855469 C 226.78125 307.511719 227.113281 308.328125 227.113281 309.3125 L 227.113281 334.175781 C 227.113281 335.160156 226.78125 335.976562 226.128906 336.632812 C 225.472656 337.28125 224.65625 337.613281 223.675781 337.613281 L 215.09375 337.613281 L 213.410156 334.453125 L 217.398438 334.453125 C 217.613281 334.453125 217.804688 334.367188 217.976562 334.199219 C 218.148438 334.039062 218.234375 333.84375 218.234375 333.621094 L 218.234375 327.773438 L 209.695312 327.773438 L 209.695312 337.613281 L 200.816406 337.613281 L 200.816406 309.3125 C 200.816406 308.328125 201.140625 307.511719 201.796875 306.855469 C 202.449219 306.207031 203.269531 305.875 204.253906 305.875 Z M 210.550781 309.011719 C 210.320312 309.011719 210.121094 309.097656 209.953125 309.269531 C 209.78125 309.4375 209.695312 309.640625 209.695312 309.867188 L 209.695312 315.203125 L 218.234375 315.203125 L 218.234375 309.867188 C 218.234375 309.640625 218.148438 309.4375 217.976562 309.269531 C 217.804688 309.097656 217.613281 309.011719 217.398438 309.011719 Z M 239 333.171875 C 239 333.398438 239.085938 333.589844 239.257812 333.75 C 239.425781 333.921875 239.625 334.003906 239.855469 334.003906 L 251.636719 334.003906 L 249.972656 337.164062 L 233.558594 337.164062 C 232.585938 337.164062 231.773438 336.832031 231.125 336.183594 C 230.46875 335.527344 230.140625 334.710938 230.140625 333.726562 L 230.140625 312.554688 L 239 312.554688 L 239 319.40625 L 251.082031 315.757812 L 251.082031 319.578125 L 239 323.226562 Z M 218.234375 324.636719 L 218.234375 318.339844 L 209.695312 318.339844 L 209.695312 324.636719 Z M 218.234375 324.636719 " fill-opacity="1" fill-rule="nonzero"/><path fill="#000000" d="M 262.25 292.898438 L 256.464844 284.9375 L 265.046875 284.9375 L 270.832031 292.898438 Z M 303.230469 287.007812 C 304.210938 287.007812 305.027344 287.335938 305.683594 287.988281 C 306.335938 288.644531 306.667969 289.460938 306.667969 290.441406 L 306.667969 334.175781 C 306.667969 335.160156 306.335938 335.976562 305.683594 336.632812 C 305.027344 337.28125 304.210938 337.613281 303.230469 337.613281 L 294.203125 337.613281 L 292.515625 334.453125 L 297.511719 334.453125 C 297.734375 334.453125 297.925781 334.367188 298.085938 334.199219 C 298.257812 334.039062 298.34375 333.84375 298.34375 333.621094 L 298.34375 290.996094 C 298.34375 290.773438 298.257812 290.570312 298.085938 290.398438 C 297.925781 290.230469 297.734375 290.144531 297.511719 290.144531 L 272.582031 290.144531 L 272.582031 287.007812 Z M 294.648438 333.726562 L 285.386719 333.726562 C 284.40625 333.726562 283.582031 333.398438 282.933594 332.746094 C 282.277344 332.089844 281.949219 331.277344 281.949219 330.3125 L 281.949219 318.511719 L 280.605469 318.511719 L 279.539062 325.53125 C 279.394531 326.503906 279.03125 327.335938 278.449219 328.03125 C 277.863281 328.722656 277.136719 329.292969 276.273438 329.738281 L 266.625 334.859375 L 266.625 331.59375 L 269.207031 329.90625 C 269.664062 329.652344 269.941406 329.183594 270.042969 328.5 L 271.683594 318.511719 L 271.171875 318.511719 C 270.199219 318.511719 269.390625 318.183594 268.738281 317.527344 C 268.082031 316.878906 267.757812 316.066406 267.757812 315.09375 L 267.757812 303.738281 C 267.757812 302.773438 268.082031 301.964844 268.738281 301.308594 C 269.390625 300.65625 270.199219 300.324219 271.171875 300.324219 L 271.683594 300.324219 L 269.207031 294.582031 L 278.085938 294.582031 L 280.542969 300.324219 L 282.015625 300.324219 L 284.492188 294.582031 L 293.347656 294.582031 L 290.894531 300.324219 L 291.554688 300.324219 C 292.519531 300.324219 293.332031 300.65625 293.988281 301.308594 C 294.65625 301.964844 294.992188 302.773438 294.992188 303.738281 L 294.992188 315.09375 C 294.992188 316.066406 294.65625 316.878906 293.988281 317.527344 C 293.332031 318.183594 292.519531 318.511719 291.554688 318.511719 L 290.828125 318.511719 L 290.828125 329.738281 C 290.828125 329.960938 290.914062 330.164062 291.085938 330.335938 C 291.257812 330.503906 291.449219 330.589844 291.664062 330.589844 L 296.335938 330.589844 Z M 256.402344 295.097656 L 264.492188 295.097656 L 264.492188 337.613281 L 256.402344 337.613281 Z M 276.613281 314.519531 C 276.613281 314.75 276.699219 314.945312 276.871094 315.117188 C 277.042969 315.289062 277.238281 315.371094 277.46875 315.371094 L 284.9375 315.371094 C 285.152344 315.371094 285.34375 315.289062 285.515625 315.117188 C 285.6875 314.945312 285.769531 314.75 285.769531 314.519531 L 285.769531 304.296875 C 285.769531 304.082031 285.6875 303.890625 285.515625 303.71875 C 285.34375 303.546875 285.152344 303.460938 284.9375 303.460938 L 277.46875 303.460938 C 277.238281 303.460938 277.042969 303.546875 276.871094 303.71875 C 276.699219 303.890625 276.613281 304.082031 276.613281 304.296875 Z M 276.613281 314.519531 " fill-opacity="1" fill-rule="nonzero"/><path fill="#000000" d="M 363.914062 305.769531 L 355.890625 305.769531 L 358.75 312.0625 C 358.90625 312.4375 359.246094 312.65625 359.773438 312.726562 L 363.914062 313.28125 L 363.914062 316.441406 L 357.234375 315.542969 C 357.535156 316.054688 357.683594 316.652344 357.683594 317.335938 L 357.683594 325.425781 C 357.683594 326.398438 357.351562 327.207031 356.699219 327.859375 C 356.042969 328.507812 355.234375 328.839844 354.269531 328.839844 L 337.425781 328.839844 L 335.742188 325.703125 L 347.972656 325.703125 C 348.195312 325.703125 348.398438 325.617188 348.570312 325.445312 C 348.738281 325.277344 348.824219 325.078125 348.824219 324.847656 L 348.824219 317.890625 C 348.824219 317.667969 348.738281 317.476562 348.570312 317.316406 C 348.398438 317.144531 348.195312 317.058594 347.972656 317.058594 L 328.144531 317.058594 C 327.929688 317.058594 327.738281 317.144531 327.566406 317.316406 C 327.394531 317.476562 327.3125 317.667969 327.3125 317.890625 L 327.3125 333.214844 C 327.3125 333.441406 327.394531 333.644531 327.566406 333.8125 C 327.738281 333.984375 327.929688 334.070312 328.144531 334.070312 L 363.914062 334.070312 L 362.25 337.207031 L 321.867188 337.207031 C 320.886719 337.207031 320.066406 336.875 319.414062 336.226562 C 318.757812 335.570312 318.433594 334.757812 318.433594 333.792969 L 318.433594 317.335938 C 318.433594 316.625 318.625 315.984375 319.007812 315.414062 L 311.261719 316.441406 L 311.261719 313.28125 L 316.019531 312.660156 C 316.320312 312.636719 316.601562 312.449219 316.875 312.105469 L 320.90625 305.769531 L 311.261719 305.769531 L 311.261719 302.628906 L 322.933594 302.628906 L 327.246094 295.886719 L 312.925781 295.886719 L 312.925781 292.726562 L 316.703125 292.726562 L 314.847656 285.941406 L 323.726562 285.941406 L 325.5625 292.726562 L 329.273438 292.726562 L 334.269531 284.9375 L 343.148438 284.9375 L 338.152344 292.726562 L 349.613281 292.726562 L 351.449219 285.941406 L 360.328125 285.941406 L 358.472656 292.726562 L 362.25 292.726562 L 362.25 295.886719 L 336.125 295.886719 L 331.8125 302.628906 L 363.914062 302.628906 Z M 347.074219 305.769531 L 329.785156 305.769531 L 325.003906 313.238281 L 324.449219 313.898438 L 351.066406 313.898438 C 350.726562 313.574219 350.4375 313.183594 350.210938 312.726562 Z M 347.074219 305.769531 " fill-opacity="1" fill-rule="nonzero"/></svg>