<?xml version="1.0" standalone="no"?><!DOCTYPE svg PUBLIC "-//W3C//DTD SVG 1.1//EN" "http://www.w3.org/Graphics/SVG/1.1/DTD/svg11.dtd"><svg t="1713026336658" class="icon" viewBox="0 0 1024 1024" version="1.1" xmlns="http://www.w3.org/2000/svg" p-id="49863" xmlns:xlink="http://www.w3.org/1999/xlink" width="48" height="48"><path d="M1 0h30v1023H1z" fill="#444444" p-id="49864"></path><path d="M8.5 992.9h1014v30H8.5z" fill="#444444" p-id="49865"></path><path d="M257.5 922.3h-98c-11 0-20-9-20-20v-98c0-11 9-20 20-20h98c11 0 20 9 20 20v98c0 11-9 20-20 20z" fill="#3392F0" p-id="49866"></path><path d="M257.5 937.3h-98c-19.3 0-35-15.7-35-35v-98c0-19.3 15.7-35 35-35h98c19.3 0 35 15.7 35 35v98c0 19.3-15.7 35-35 35z m-98-138c-2.7 0-5 2.3-5 5v98c0 2.7 2.3 5 5 5h98c2.7 0 5-2.3 5-5v-98c0-2.7-2.3-5-5-5h-98z" fill="#444444" p-id="49867"></path><path d="M459.1 922.3h-98c-11 0-20-9-20-20v-291c0-11 9-20 20-20h98c11 0 20 9 20 20v291c0 11-9 20-20 20z" fill="#3392F0" p-id="49868"></path><path d="M459.1 937.3h-98c-19.3 0-35-15.7-35-35v-291c0-19.3 15.7-35 35-35h98c19.3 0 35 15.7 35 35v291c0 19.3-15.7 35-35 35z m-98-331.1c-2.7 0-5 2.3-5 5v291c0 2.7 2.3 5 5 5h98c2.7 0 5-2.3 5-5v-291c0-2.7-2.3-5-5-5h-98z" fill="#444444" p-id="49869"></path><path d="M660.8 922.3h-98c-11 0-20-9-20-20V707.9c0-11 9-20 20-20h98c11 0 20 9 20 20v194.4c0 11-9 20-20 20z" fill="#3392F0" p-id="49870"></path><path d="M660.8 937.3h-98c-19.3 0-35-15.7-35-35V707.9c0-19.3 15.7-35 35-35h98c19.3 0 35 15.7 35 35v194.4c0 19.3-15.7 35-35 35z m-98-234.4c-2.7 0-5 2.3-5 5v194.4c0 2.7 2.3 5 5 5h98c2.7 0 5-2.3 5-5V707.9c0-2.7-2.3-5-5-5h-98z" fill="#444444" p-id="49871"></path><path d="M862.5 922.3h-98c-11 0-20-9-20-20V505c0-11 9-20 20-20h98c11 0 20 9 20 20v397.2c0 11.1-9 20.1-20 20.1z" fill="#3392F0" p-id="49872"></path><path d="M862.5 937.3h-98c-19.3 0-35-15.7-35-35V505c0-19.3 15.7-35 35-35h98c19.3 0 35 15.7 35 35v397.2c0 19.4-15.7 35.1-35 35.1z m-98-437.3c-2.7 0-5 2.3-5 5v397.2c0 2.7 2.3 5 5 5h98c2.7 0 5-2.3 5-5V505c0-2.7-2.3-5-5-5h-98z" fill="#444444" p-id="49873"></path><path d="M149.4 506.4l-19.9-22.5 290.7-256.4 209.6 196.4 194.3-231.2 23 19.3-214.7 255.4L419.6 268z" fill="#444444" p-id="49874"></path><path d="M872.7 263.4L760 182.8l126.2-57.3-13.5 137.9z m-53-74.8l28.2 20.2 3.4-34.5-31.6 14.3z" fill="#444444" p-id="49875"></path></svg>