<?xml version="1.0" standalone="no"?><!DOCTYPE svg PUBLIC "-//W3C//DTD SVG 1.1//EN" "http://www.w3.org/Graphics/SVG/1.1/DTD/svg11.dtd"><svg t="1713026232894" class="icon" viewBox="0 0 1024 1024" version="1.1" xmlns="http://www.w3.org/2000/svg" p-id="39865" xmlns:xlink="http://www.w3.org/1999/xlink" width="48" height="48"><path d="M356.571429 782.848V731.428571c134.162286-99.913143 225.609143-173.056 274.340571-219.428571 48.731429-46.372571 155.995429-157.421714 321.828571-333.147429l63.689143 213.906286c-223.689143 92.672-369.115429 193.645714-436.297143 302.884572-67.2 109.238857-111.396571 205.019429-132.571428 287.323428h-34.212572a104.082286 104.082286 0 0 1-11.062857 34.925714c-157.385143-19.748571-260.388571-64.950857-308.992-135.552C20.388571 776.411429 0 612.516571 6.4 612.516571c6.4 0 201.526857-83.145143 321.353143 118.912a1146.331429 1146.331429 0 0 1 28.818286 51.419429z" fill="#32C5FF" fill-opacity=".5" p-id="39866"></path><path d="M745.490286 575.451429a882.468571 882.468571 0 0 0-3.401143 2.56C395.867429 958.043429 396.416 946.413714 396.416 934.765714c0-51.620571-12.928-100.388571-35.693714-143.195428l-64.054857 77.988571c-3.84 5.12-8.96 7.68-15.341715 8.941714a238.006857 238.006857 0 0 1-172.342857-34.779428c55.844571 77.458286 146.834286 128.128 249.051429 128.128 12.141714 0 24.283429-0.585143 36.388571-2.157714-0.749714 6.253714-1.792 12.525714-3.108571 18.779428-2.56 14.08 6.381714 26.861714 20.443428 29.421714h2.194286c-17.462857 3.108571-36.681143 5.12-55.899429 5.12C161.097143 1022.994286 0 861.860571 0 664.923429c0-4.041143 0.036571-8.045714 0.146286-12.032a249.728 249.728 0 0 1 3.693714-51.894858 24.905143 24.905143 0 0 1 24.265143-20.900571 878.555429 878.555429 0 0 0 304.036571-177.243429 24.502857 24.502857 0 0 1 9.435429-8.502857c24.173714-22.034286 47.36-45.202286 68.900571-70.838857 9.142857-10.496 18.011429-21.174857 26.624-32.036571 1.828571-5.12 5.248-9.325714 9.581715-12.288 58.185143-75.977143 103.68-160.329143 133.668571-251.629715a24.685714 24.685714 0 0 1 14.08-19.090285c3.730286-1.92 7.862857-2.998857 12.032-3.072C625.316571 2.121143 645.138286 0 664.941714 0h1.28c196.937143 0 358.052571 161.115429 358.052572 358.034286 0 21.76-1.28 42.221714-6.4 63.945143-1.042286 4.699429-3.565714 8.978286-6.985143 12.397714a23.076571 23.076571 0 0 1-12.178286 8.064 879.36 879.36 0 0 0-253.220571 132.992h89.526857c14.08 0 25.581714 11.52 25.581714 25.581714 0 14.08-11.52 25.581714-25.581714 25.581714h-134.253714v175.177143c0 14.08-11.52 25.581714-25.6 25.581715-14.043429 0-25.563429-11.52-25.563429-25.581715v-141.988571a796.854857 796.854857 0 0 1 48.603429-45.988572 890.514286 890.514286 0 0 1 35.218285-29.074285c-305.024 433.152-296.082286 425.490286-290.980571 415.268571 35.803429-111.268571 94.628571-212.297143 171.355428-300.507428a707.017143 707.017143 0 0 1 35.803429-39.698286zM51.346286 653.019429c4.553143 98.413714 87.094857 178.157714 187.794285 178.157714 8.941714 0 16.603429 0 24.283429-1.28l68.224-83.163429c-56.283429-72.228571-144.018286-118.893714-242.139429-118.893714-12.16 0-24.32 0.603429-36.498285 2.194286-0.877714 7.661714-1.408 15.378286-1.664 22.985143z m309.394285 138.532571l24.155429-29.44c5.595429-6.363429 7.186286-15.232 4.827429-23.168a356.022857 356.022857 0 0 1 51.456 127.268571 909.568 909.568 0 0 1 136.301714-203.739428c-28.16-106.057143-112.091429-188.891429-217.106286-216.978286l-2.322286 2.048a912.694857 912.694857 0 0 1-201.417142 134.217143c92.050286 17.664 171.885714 70.838857 224.512 144.621714z m56.137143 226.322286z m200.850286-398.116572a932.333714 932.333714 0 0 1 75.776-68.388571 306.048 306.048 0 0 0-221.714286-221.842286c-7.460571 9.197714-15.104 18.285714-22.948571 27.227429a1009.92 1009.92 0 0 1-45.622857 48.493714 359.661714 359.661714 0 0 1 214.509714 214.509714zM738.194286 517.485714a905.490286 905.490286 0 0 1 231.113143-118.893714c1.865143-13.165714 2.56-26.514286 2.56-40.521143 0-168.795429-138.130286-306.907429-306.925715-306.907428-12.909714 0-26.514286 0.676571-39.789714 2.486857-29.366857 82.779429-69.046857 160.329143-119.497143 231.277714A356.041143 356.041143 0 0 1 738.194286 517.467429z" fill="#3080FE" p-id="39867"></path></svg>