<?xml version="1.0" standalone="no"?><!DOCTYPE svg PUBLIC "-//W3C//DTD SVG 1.1//EN" "http://www.w3.org/Graphics/SVG/1.1/DTD/svg11.dtd"><svg t="1710772946073" class="icon" viewBox="0 0 1124 1024" version="1.1" xmlns="http://www.w3.org/2000/svg" p-id="9190" xmlns:xlink="http://www.w3.org/1999/xlink" width="52.6875" height="48"><path d="M1072.896706 593.470822l-36.635816-19.601329-396.693552 211.414328a163.344404 163.344404 0 0 1-153.777089 0l-396.693552-211.414328-36.869165 19.601329a93.339659 93.339659 0 0 0 0 164.744498l490.033211 260.1843a46.66983 46.66983 0 0 0 43.86964 0l490.033211-260.1843a93.339659 93.339659 0 0 0-3.266888-164.744498z" fill="#1DB780" opacity=".4" p-id="9191"></path><path d="M539.693902 691.010766l-490.033211-260.184301a93.339659 93.339659 0 0 1 0-164.977848l490.033211-260.1843a46.66983 46.66983 0 0 1 44.569687 0l490.033212 260.1843a93.339659 93.339659 0 0 1 0 164.977848L584.263589 691.010766a46.66983 46.66983 0 0 1-44.569687 0z" fill="#1AAA7A" p-id="9192"></path></svg>