<?xml version="1.0" standalone="no"?><!DOCTYPE svg PUBLIC "-//W3C//DTD SVG 1.1//EN" "http://www.w3.org/Graphics/SVG/1.1/DTD/svg11.dtd"><svg t="1712329311594" class="icon" viewBox="0 0 1024 1024" version="1.1" xmlns="http://www.w3.org/2000/svg" p-id="18405" xmlns:xlink="http://www.w3.org/1999/xlink" width="48" height="48"><path d="M921.6 0c58.026667 0 102.4 44.373333 102.4 102.4v716.8c0 58.026667-44.373333 102.4-102.4 102.4V204.8c0-58.026667-44.373333-102.4-102.4-102.4H102.4c0-58.026667 44.373333-102.4 102.4-102.4h716.8z" fill="#A6C5F6" p-id="18406"></path><path d="M819.2 102.4c58.026667 0 102.4 44.373333 102.4 102.4v716.8c0 58.026667-44.373333 102.4-102.4 102.4H102.4c-58.026667 0-102.4-44.373333-102.4-102.4V204.8c0-58.026667 44.373333-102.4 102.4-102.4h716.8zM242.346667 750.933333c-6.826667-6.826667-13.653333-6.826667-20.48 3.413334l-34.133334 34.133333-34.133333-34.133333c-10.24-10.24-13.653333-10.24-23.893333 0l-10.24 10.24c-10.24 10.24-10.24 13.653333 0 23.893333l30.72 30.72-34.133334 34.133333c-6.826667 6.826667-6.826667 13.653333 0 20.48l13.653334 13.653334c10.24 10.24 13.653333 10.24 23.893333 0l34.133333-34.133334 34.133334 34.133334c10.24 6.826667 13.653333 6.826667 23.893333 0l10.24-10.24c10.24-10.24 10.24-13.653333 0-27.306667l-30.72-30.72 34.133333-34.133333c6.826667-6.826667 6.826667-13.653333 0-20.48-6.826667-3.413333-10.24-6.826667-17.066666-13.653334z m563.2 40.96H344.746667v92.16h460.8v-92.16zM242.346667 522.24c-6.826667-6.826667-13.653333-6.826667-20.48 3.413333l-34.133334 34.133334-34.133333-34.133334c-10.24-10.24-13.653333-10.24-23.893333 0l-10.24 10.24c-10.24 10.24-10.24 13.653333 0 23.893334l30.72 30.72-34.133334 34.133333c-6.826667 6.826667-6.826667 13.653333 0 20.48l13.653334 13.653333c10.24 10.24 13.653333 10.24 23.893333 0l34.133333-34.133333 34.133334 34.133333c10.24 6.826667 13.653333 6.826667 23.893333 0l10.24-10.24c10.24-10.24 10.24-13.653333 0-27.306666l-30.72-30.72 34.133333-34.133334c6.826667-6.826667 6.826667-13.653333 0-20.48-6.826667-3.413333-10.24-6.826667-17.066666-13.653333z m563.2 40.96H344.746667v92.16h460.8v-92.16zM283.306667 293.546667c-10.24-10.24-13.653333-10.24-23.893334 0l-3.413333 3.413333c-23.893333 23.893333-44.373333 47.786667-68.266667 71.68-10.24-10.24-20.48-20.48-30.72-34.133333-10.24-10.24-13.653333-10.24-23.893333 0l-10.24 10.24c-6.826667 6.826667-6.826667 13.653333 0 23.893333 17.066667 20.48 37.546667 37.546667 54.613333 58.026667 6.826667 6.826667 13.653333 6.826667 20.48 0l23.893334-23.893334c23.893333-27.306667 47.786667-51.2 75.093333-78.506666 6.826667-10.24 6.826667-13.653333 0-23.893334-6.826667 0-10.24-3.413333-13.653333-6.826666z m522.24 37.546666H344.746667v92.16h460.8V331.093333z" fill="#1677FF" p-id="18407"></path></svg>