<?xml version="1.0" standalone="no"?><!DOCTYPE svg PUBLIC "-//W3C//DTD SVG 1.1//EN" "http://www.w3.org/Graphics/SVG/1.1/DTD/svg11.dtd"><svg t="1707277179380" class="icon" viewBox="0 0 1024 1024" version="1.1" xmlns="http://www.w3.org/2000/svg" p-id="34521" xmlns:xlink="http://www.w3.org/1999/xlink" width="200" height="200"><path d="M0 0m512 0l0 0q512 0 512 512l0 0q0 512-512 512l0 0q-512 0-512-512l0 0q0-512 512-512Z" fill="#c9fdf1" p-id="34522" data-spm-anchor-id="a313x.search_index.0.i10.de003a81pmymfZ" class="selected"></path><path d="M936.6016 700.2368c-73.344 162.5856-236.8512 275.7632-426.8032 275.7632-192.5632 0-357.9648-116.3008-429.7984-282.4704a536.7296 536.7296 0 0 1 273.5872-189.5424 215.3984 215.3984 0 0 0 155.8784 66.56c60.3392 0 114.9184-24.7808 154.1888-64.8192a537.0368 537.0368 0 0 1 272.9472 194.5088z" fill="#FFFFFF" p-id="34523" data-spm-anchor-id="a313x.search_index.0.i19.de003a81pmymfZ" class=""></path><path d="M512 312.0128m-200.0128 0a200.0128 200.0128 0 1 0 400.0256 0 200.0128 200.0128 0 1 0-400.0256 0Z" fill="#FFFFFF" p-id="34524" data-spm-anchor-id="a313x.search_index.0.i21.de003a81pmymfZ" class=""></path><path d="M576.3072 501.376c102.2464-39.1936 135.68-120.832 135.68-189.3888A200.0128 200.0128 0 0 0 512 112c67.7632 45.4656 89.3952 125.2864 99.9936 168.0128 10.5984 42.7008 0.4864 166.9888-35.6864 221.3632zM664.32 504.0128c121.6768 44.3648 212.4288 109.056 272.2816 194.048-25.4976 74.6752-87.68 145.92-186.496 213.8112 14.9248-68.6592 6.912-139.9296-24.064-213.7856-30.0032-71.68-86.272-109.1072-134.6816-143.1808 32.8704-14.8992 57.1904-31.872 72.96-50.8928z" fill="#DCAB58" fill-opacity=".234" p-id="34525" data-spm-anchor-id="a313x.search_index.0.i20.de003a81pmymfZ" class=""></path></svg>